<svg width="2236" height="635" viewBox="0 0 2236 635" fill="none" xmlns="http://www.w3.org/2000/svg">
<path fill-rule="evenodd" clip-rule="evenodd" d="M790 277C790 250.726 785.859 224.614 777.726 199.629C769.595 174.644 757.575 151.095 742.109 129.853C726.645 108.612 707.928 89.9401 686.647 74.5289C665.367 59.116 641.791 47.1538 616.785 39.0838C591.781 31.0138 565.658 26.9359 539.384 27.0008C513.108 27.0656 487.007 31.2724 462.043 39.4659C437.078 47.6594 413.56 59.7378 392.355 75.2547C371.152 90.7715 352.527 109.537 337.168 130.854C321.808 152.171 309.904 175.779 301.895 200.804C293.887 225.827 289.874 251.959 290.003 278.235C290.133 304.509 294.405 330.6 302.659 355.544C310.915 380.489 323.05 403.978 338.62 425.142C354.189 446.308 373 464.886 394.355 480.194C415.711 495.501 439.346 507.347 464.391 515.293C489.436 523.239 515.578 527.188 541.852 526.992C568.126 526.799 594.207 522.464 619.131 514.146L540.001 277H790V277Z" fill="url(#paint0_angular_2_83)" stroke="#242530" stroke-width="9.33333"/>
<path fill-rule="evenodd" clip-rule="evenodd" d="M619.131 514.146C668.884 497.546 712.172 465.7 742.833 423.146C773.495 380.593 790 329.45 790 277H540L619.131 514.146V514.146Z" fill="#C792EA" stroke="#242530" stroke-width="9.33333"/>
<path fill-rule="evenodd" clip-rule="evenodd" d="M540.001 451.999C586.412 451.999 630.926 433.56 663.744 400.744C696.561 367.926 715 323.412 715 277C715 230.589 696.561 186.075 663.744 153.256C630.926 120.44 586.412 102.001 540.001 102.001C493.589 102.001 449.075 120.44 416.257 153.256C383.441 186.075 365.001 230.589 365.001 277C365.001 323.412 383.441 367.926 416.257 400.744C449.075 433.56 493.589 451.999 540.001 451.999V451.999Z" fill="#242530" stroke="#242530" stroke-width="1.33333"/>
<path fill-rule="evenodd" clip-rule="evenodd" d="M1882 277.001C1882 234.183 1870.99 192.075 1850.05 154.728C1829.1 117.381 1798.93 86.0335 1762.4 63.6997C1725.86 41.3677 1684.19 28.789 1641.41 27.1772C1598.62 25.5655 1556.13 34.9735 1518.02 54.4942C1479.91 74.0149 1447.45 103.002 1423.76 138.668C1400.07 174.333 1385.93 215.495 1382.71 258.192C1379.49 300.888 1387.29 343.704 1405.36 382.52C1423.43 421.338 1451.18 454.868 1485.92 479.886L1632 277.001H1882V277.001Z" fill="#467CDA" stroke="#242530" stroke-width="9.33333"/>
<path fill-rule="evenodd" clip-rule="evenodd" d="M1485.92 479.886C1496.55 487.538 1507.77 494.344 1519.46 500.24C1531.16 506.135 1543.3 511.103 1555.77 515.096L1632 277L1485.92 479.886V479.886Z" fill="#F78C6C" stroke="#242530" stroke-width="9.33333"/>
<path fill-rule="evenodd" clip-rule="evenodd" d="M1555.77 515.096C1593.26 527.097 1633.05 530.077 1671.9 523.794C1710.75 517.513 1747.58 502.14 1779.38 478.936C1811.17 455.734 1837.03 425.347 1854.87 390.258C1872.7 355.17 1882 316.361 1882 277H1632L1555.77 515.096V515.096Z" fill="#C792EA" stroke="#242530" stroke-width="9.33333"/>
<path fill-rule="evenodd" clip-rule="evenodd" d="M1632 452C1678.41 452 1722.92 433.563 1755.74 400.745C1788.55 367.927 1807 323.412 1807 277.001C1807 230.589 1788.55 186.075 1755.74 153.257C1722.92 120.441 1678.41 102.001 1632 102.001C1585.59 102.001 1541.07 120.441 1508.25 153.257C1475.44 186.075 1457 230.589 1457 277.001C1457 323.412 1475.44 367.927 1508.25 400.745C1541.07 433.563 1585.59 452 1632 452V452Z" fill="#242530" stroke="#242530" stroke-width="1.33333"/>
<path d="M84.1797 65V34.6953H72.8594V30.6406H100.094V34.6953H88.7266V65H84.1797ZM102.414 65V40.1094H106.211V43.8828C107.18 42.1172 108.07 40.9531 108.883 40.3906C109.711 39.8281 110.617 39.5469 111.602 39.5469C113.023 39.5469 114.469 40 115.938 40.9062L114.484 44.8203C113.453 44.2109 112.422 43.9062 111.391 43.9062C110.469 43.9062 109.641 44.1875 108.906 44.75C108.172 45.2969 107.648 46.0625 107.336 47.0469C106.867 48.5469 106.633 50.1875 106.633 51.9688V65H102.414ZM134.688 61.9297C133.125 63.2578 131.617 64.1953 130.164 64.7422C128.727 65.2891 127.18 65.5625 125.523 65.5625C122.789 65.5625 120.688 64.8984 119.219 63.5703C117.75 62.2266 117.016 60.5156 117.016 58.4375C117.016 57.2188 117.289 56.1094 117.836 55.1094C118.398 54.0938 119.125 53.2812 120.016 52.6719C120.922 52.0625 121.938 51.6016 123.062 51.2891C123.891 51.0703 125.141 50.8594 126.812 50.6562C130.219 50.25 132.727 49.7656 134.336 49.2031C134.352 48.625 134.359 48.2578 134.359 48.1016C134.359 46.3828 133.961 45.1719 133.164 44.4688C132.086 43.5156 130.484 43.0391 128.359 43.0391C126.375 43.0391 124.906 43.3906 123.953 44.0938C123.016 44.7812 122.32 46.0078 121.867 47.7734L117.742 47.2109C118.117 45.4453 118.734 44.0234 119.594 42.9453C120.453 41.8516 121.695 41.0156 123.32 40.4375C124.945 39.8438 126.828 39.5469 128.969 39.5469C131.094 39.5469 132.82 39.7969 134.148 40.2969C135.477 40.7969 136.453 41.4297 137.078 42.1953C137.703 42.9453 138.141 43.8984 138.391 45.0547C138.531 45.7734 138.602 47.0703 138.602 48.9453V54.5703C138.602 58.4922 138.688 60.9766 138.859 62.0234C139.047 63.0547 139.406 64.0469 139.938 65H135.531C135.094 64.125 134.812 63.1016 134.688 61.9297ZM134.336 52.5078C132.805 53.1328 130.508 53.6641 127.445 54.1016C125.711 54.3516 124.484 54.6328 123.766 54.9453C123.047 55.2578 122.492 55.7188 122.102 56.3281C121.711 56.9219 121.516 57.5859 121.516 58.3203C121.516 59.4453 121.938 60.3828 122.781 61.1328C123.641 61.8828 124.891 62.2578 126.531 62.2578C128.156 62.2578 129.602 61.9062 130.867 61.2031C132.133 60.4844 133.062 59.5078 133.656 58.2734C134.109 57.3203 134.336 55.9141 134.336 54.0547V52.5078ZM145.188 35.4922V30.6406H149.406V35.4922H145.188ZM145.188 65V40.1094H149.406V65H145.188ZM155.852 65V40.1094H159.648V43.6484C161.477 40.9141 164.117 39.5469 167.57 39.5469C169.07 39.5469 170.445 39.8203 171.695 40.3672C172.961 40.8984 173.906 41.6016 174.531 42.4766C175.156 43.3516 175.594 44.3906 175.844 45.5938C176 46.375 176.078 47.7422 176.078 49.6953V65H171.859V49.8594C171.859 48.1406 171.695 46.8594 171.367 46.0156C171.039 45.1562 170.453 44.4766 169.609 43.9766C168.781 43.4609 167.805 43.2031 166.68 43.2031C164.883 43.2031 163.328 43.7734 162.016 44.9141C160.719 46.0547 160.07 48.2188 160.07 51.4062V65H155.852ZM215.57 60.9453C214.18 62.4922 212.664 63.6562 211.023 64.4375C209.383 65.2031 207.609 65.5859 205.703 65.5859C202.188 65.5859 199.398 64.3984 197.336 62.0234C195.664 60.0859 194.828 57.9219 194.828 55.5312C194.828 53.4062 195.508 51.4922 196.867 49.7891C198.242 48.0703 200.289 46.5625 203.008 45.2656C201.461 43.4844 200.43 42.0391 199.914 40.9297C199.398 39.8203 199.141 38.75 199.141 37.7188C199.141 35.6562 199.945 33.8672 201.555 32.3516C203.18 30.8203 205.219 30.0547 207.672 30.0547C210.016 30.0547 211.93 30.7734 213.414 32.2109C214.914 33.6484 215.664 35.375 215.664 37.3906C215.664 40.6562 213.5 43.4453 209.172 45.7578L215.336 53.6094C216.039 52.2344 216.586 50.6406 216.977 48.8281L221.359 49.7656C220.609 52.7656 219.594 55.2344 218.312 57.1719C219.891 59.2656 221.68 61.0234 223.68 62.4453L220.844 65.7969C219.141 64.7031 217.383 63.0859 215.57 60.9453ZM206.992 43.0391C208.82 41.9609 210 41.0156 210.531 40.2031C211.078 39.3906 211.352 38.4922 211.352 37.5078C211.352 36.3359 210.977 35.3828 210.227 34.6484C209.492 33.8984 208.57 33.5234 207.461 33.5234C206.32 33.5234 205.367 33.8906 204.602 34.625C203.852 35.3594 203.477 36.2578 203.477 37.3203C203.477 37.8516 203.609 38.4141 203.875 39.0078C204.156 39.5859 204.57 40.2031 205.117 40.8594L206.992 43.0391ZM212.922 57.6172L205.188 48.0312C202.906 49.3906 201.367 50.6562 200.57 51.8281C199.773 52.9844 199.375 54.1328 199.375 55.2734C199.375 56.6641 199.93 58.1094 201.039 59.6094C202.148 61.1094 203.719 61.8594 205.75 61.8594C207.016 61.8594 208.32 61.4688 209.664 60.6875C211.023 59.8906 212.109 58.8672 212.922 57.6172ZM251.664 65L238.352 30.6406H243.273L252.203 55.6016C252.922 57.6016 253.523 59.4766 254.008 61.2266C254.539 59.3516 255.156 57.4766 255.859 55.6016L265.141 30.6406H269.781L256.328 65H251.664ZM286 61.9297C284.438 63.2578 282.93 64.1953 281.477 64.7422C280.039 65.2891 278.492 65.5625 276.836 65.5625C274.102 65.5625 272 64.8984 270.531 63.5703C269.062 62.2266 268.328 60.5156 268.328 58.4375C268.328 57.2188 268.602 56.1094 269.148 55.1094C269.711 54.0938 270.438 53.2812 271.328 52.6719C272.234 52.0625 273.25 51.6016 274.375 51.2891C275.203 51.0703 276.453 50.8594 278.125 50.6562C281.531 50.25 284.039 49.7656 285.648 49.2031C285.664 48.625 285.672 48.2578 285.672 48.1016C285.672 46.3828 285.273 45.1719 284.477 44.4688C283.398 43.5156 281.797 43.0391 279.672 43.0391C277.688 43.0391 276.219 43.3906 275.266 44.0938C274.328 44.7812 273.633 46.0078 273.18 47.7734L269.055 47.2109C269.43 45.4453 270.047 44.0234 270.906 42.9453C271.766 41.8516 273.008 41.0156 274.633 40.4375C276.258 39.8438 278.141 39.5469 280.281 39.5469C282.406 39.5469 284.133 39.7969 285.461 40.2969C286.789 40.7969 287.766 41.4297 288.391 42.1953C289.016 42.9453 289.453 43.8984 289.703 45.0547C289.844 45.7734 289.914 47.0703 289.914 48.9453V54.5703C289.914 58.4922 290 60.9766 290.172 62.0234C290.359 63.0547 290.719 64.0469 291.25 65H286.844C286.406 64.125 286.125 63.1016 286 61.9297ZM285.648 52.5078C284.117 53.1328 281.82 53.6641 278.758 54.1016C277.023 54.3516 275.797 54.6328 275.078 54.9453C274.359 55.2578 273.805 55.7188 273.414 56.3281C273.023 56.9219 272.828 57.5859 272.828 58.3203C272.828 59.4453 273.25 60.3828 274.094 61.1328C274.953 61.8828 276.203 62.2578 277.844 62.2578C279.469 62.2578 280.914 61.9062 282.18 61.2031C283.445 60.4844 284.375 59.5078 284.969 58.2734C285.422 57.3203 285.648 55.9141 285.648 54.0547V52.5078ZM296.383 65V30.6406H300.602V65H296.383ZM20.1016 120H15.8828V93.1172C14.8672 94.0859 13.5312 95.0547 11.875 96.0234C10.2344 96.9922 8.75781 97.7188 7.44531 98.2031V94.125C9.80469 93.0156 11.8672 91.6719 13.6328 90.0938C15.3984 88.5156 16.6484 86.9844 17.3828 85.5H20.1016V120ZM33.2031 120V115.195H38.0078V120C38.0078 121.766 37.6953 123.188 37.0703 124.266C36.4453 125.359 35.4531 126.203 34.0938 126.797L32.9219 124.992C33.8125 124.602 34.4688 124.023 34.8906 123.258C35.3125 122.508 35.5469 121.422 35.5938 120H33.2031ZM66.1797 94.0547L61.9844 94.3828C61.6094 92.7266 61.0781 91.5234 60.3906 90.7734C59.25 89.5703 57.8438 88.9688 56.1719 88.9688C54.8281 88.9688 53.6484 89.3438 52.6328 90.0938C51.3047 91.0625 50.2578 92.4766 49.4922 94.3359C48.7266 96.1953 48.3281 98.8438 48.2969 102.281C49.3125 100.734 50.5547 99.5859 52.0234 98.8359C53.4922 98.0859 55.0312 97.7109 56.6406 97.7109C59.4531 97.7109 61.8438 98.75 63.8125 100.828C65.7969 102.891 66.7891 105.562 66.7891 108.844C66.7891 111 66.3203 113.008 65.3828 114.867C64.4609 116.711 63.1875 118.125 61.5625 119.109C59.9375 120.094 58.0938 120.586 56.0312 120.586C52.5156 120.586 49.6484 119.297 47.4297 116.719C45.2109 114.125 44.1016 109.859 44.1016 103.922C44.1016 97.2812 45.3281 92.4531 47.7812 89.4375C49.9219 86.8125 52.8047 85.5 56.4297 85.5C59.1328 85.5 61.3438 86.2578 63.0625 87.7734C64.7969 89.2891 65.8359 91.3828 66.1797 94.0547ZM48.9531 108.867C48.9531 110.32 49.2578 111.711 49.8672 113.039C50.4922 114.367 51.3594 115.383 52.4688 116.086C53.5781 116.773 54.7422 117.117 55.9609 117.117C57.7422 117.117 59.2734 116.398 60.5547 114.961C61.8359 113.523 62.4766 111.57 62.4766 109.102C62.4766 106.727 61.8438 104.859 60.5781 103.5C59.3125 102.125 57.7188 101.438 55.7969 101.438C53.8906 101.438 52.2734 102.125 50.9453 103.5C49.6172 104.859 48.9531 106.648 48.9531 108.867ZM71.0078 111L75.4375 110.625C75.7656 112.781 76.5234 114.406 77.7109 115.5C78.9141 116.578 80.3594 117.117 82.0469 117.117C84.0781 117.117 85.7969 116.352 87.2031 114.82C88.6094 113.289 89.3125 111.258 89.3125 108.727C89.3125 106.32 88.6328 104.422 87.2734 103.031C85.9297 101.641 84.1641 100.945 81.9766 100.945C80.6172 100.945 79.3906 101.258 78.2969 101.883C77.2031 102.492 76.3438 103.289 75.7188 104.273L71.7578 103.758L75.0859 86.1094H92.1719V90.1406H78.4609L76.6094 99.375C78.6719 97.9375 80.8359 97.2188 83.1016 97.2188C86.1016 97.2188 88.6328 98.2578 90.6953 100.336C92.7578 102.414 93.7891 105.086 93.7891 108.352C93.7891 111.461 92.8828 114.148 91.0703 116.414C88.8672 119.195 85.8594 120.586 82.0469 120.586C78.9219 120.586 76.3672 119.711 74.3828 117.961C72.4141 116.211 71.2891 113.891 71.0078 111ZM98.0078 90.1406V86.0859H120.25V89.3672C118.062 91.6953 115.891 94.7891 113.734 98.6484C111.594 102.508 109.938 106.477 108.766 110.555C107.922 113.43 107.383 116.578 107.148 120H102.812C102.859 117.297 103.391 114.031 104.406 110.203C105.422 106.375 106.875 102.688 108.766 99.1406C110.672 95.5781 112.695 92.5781 114.836 90.1406H98.0078ZM147.039 130.102C144.711 127.164 142.742 123.727 141.133 119.789C139.523 115.852 138.719 111.773 138.719 107.555C138.719 103.836 139.32 100.273 140.523 96.8672C141.93 92.9141 144.102 88.9766 147.039 85.0547H150.062C148.172 88.3047 146.922 90.625 146.312 92.0156C145.359 94.1719 144.609 96.4219 144.062 98.7656C143.391 101.688 143.055 104.625 143.055 107.578C143.055 115.094 145.391 122.602 150.062 130.102H147.039ZM160.281 101.367C158.531 100.727 157.234 99.8125 156.391 98.625C155.547 97.4375 155.125 96.0156 155.125 94.3594C155.125 91.8594 156.023 89.7578 157.82 88.0547C159.617 86.3516 162.008 85.5 164.992 85.5C167.992 85.5 170.406 86.375 172.234 88.125C174.062 89.8594 174.977 91.9766 174.977 94.4766C174.977 96.0703 174.555 97.4609 173.711 98.6484C172.883 99.8203 171.617 100.727 169.914 101.367C172.023 102.055 173.625 103.164 174.719 104.695C175.828 106.227 176.383 108.055 176.383 110.18C176.383 113.117 175.344 115.586 173.266 117.586C171.188 119.586 168.453 120.586 165.062 120.586C161.672 120.586 158.938 119.586 156.859 117.586C154.781 115.57 153.742 113.062 153.742 110.062C153.742 107.828 154.305 105.961 155.43 104.461C156.57 102.945 158.188 101.914 160.281 101.367ZM159.438 94.2188C159.438 95.8438 159.961 97.1719 161.008 98.2031C162.055 99.2344 163.414 99.75 165.086 99.75C166.711 99.75 168.039 99.2422 169.07 98.2266C170.117 97.1953 170.641 95.9375 170.641 94.4531C170.641 92.9062 170.102 91.6094 169.023 90.5625C167.961 89.5 166.633 88.9688 165.039 88.9688C163.43 88.9688 162.094 89.4844 161.031 90.5156C159.969 91.5469 159.438 92.7812 159.438 94.2188ZM158.078 110.086C158.078 111.289 158.359 112.453 158.922 113.578C159.5 114.703 160.352 115.578 161.477 116.203C162.602 116.812 163.812 117.117 165.109 117.117C167.125 117.117 168.789 116.469 170.102 115.172C171.414 113.875 172.07 112.227 172.07 110.227C172.07 108.195 171.391 106.516 170.031 105.188C168.688 103.859 167 103.195 164.969 103.195C162.984 103.195 161.336 103.852 160.023 105.164C158.727 106.477 158.078 108.117 158.078 110.086ZM180.508 103.055C180.508 98.9922 180.922 95.7266 181.75 93.2578C182.594 90.7734 183.836 88.8594 185.477 87.5156C187.133 86.1719 189.211 85.5 191.711 85.5C193.555 85.5 195.172 85.875 196.562 86.625C197.953 87.3594 199.102 88.4297 200.008 89.8359C200.914 91.2266 201.625 92.9297 202.141 94.9453C202.656 96.9453 202.914 99.6484 202.914 103.055C202.914 107.086 202.5 110.344 201.672 112.828C200.844 115.297 199.602 117.211 197.945 118.57C196.305 119.914 194.227 120.586 191.711 120.586C188.398 120.586 185.797 119.398 183.906 117.023C181.641 114.164 180.508 109.508 180.508 103.055ZM184.844 103.055C184.844 108.695 185.5 112.453 186.812 114.328C188.141 116.188 189.773 117.117 191.711 117.117C193.648 117.117 195.273 116.18 196.586 114.305C197.914 112.43 198.578 108.68 198.578 103.055C198.578 97.3984 197.914 93.6406 196.586 91.7812C195.273 89.9219 193.633 88.9922 191.664 88.9922C189.727 88.9922 188.18 89.8125 187.023 91.4531C185.57 93.5469 184.844 97.4141 184.844 103.055ZM209.594 120V115.195H214.398V120H209.594ZM236.477 120H232.258V93.1172C231.242 94.0859 229.906 95.0547 228.25 96.0234C226.609 96.9922 225.133 97.7188 223.82 98.2031V94.125C226.18 93.0156 228.242 91.6719 230.008 90.0938C231.773 88.5156 233.023 86.9844 233.758 85.5H236.477V120ZM248.102 93.8906C248.102 91.4375 248.719 89.3516 249.953 87.6328C251.188 85.9141 252.977 85.0547 255.32 85.0547C257.477 85.0547 259.258 85.8281 260.664 87.375C262.086 88.9062 262.797 91.1641 262.797 94.1484C262.797 97.0547 262.078 99.2969 260.641 100.875C259.219 102.438 257.461 103.219 255.367 103.219C253.289 103.219 251.555 102.445 250.164 100.898C248.789 99.3516 248.102 97.0156 248.102 93.8906ZM255.438 87.9609C254.391 87.9609 253.516 88.4141 252.812 89.3203C252.125 90.2266 251.781 91.8906 251.781 94.3125C251.781 96.5156 252.133 98.0703 252.836 98.9766C253.539 99.8672 254.406 100.312 255.438 100.312C256.5 100.312 257.375 99.8594 258.062 98.9531C258.766 98.0469 259.117 96.3906 259.117 93.9844C259.117 91.7656 258.766 90.2109 258.062 89.3203C257.359 88.4141 256.484 87.9609 255.438 87.9609ZM255.461 121.266L274.258 85.0547H277.68L258.953 121.266H255.461ZM270.32 111.938C270.32 109.469 270.938 107.383 272.172 105.68C273.406 103.961 275.203 103.102 277.562 103.102C279.719 103.102 281.5 103.875 282.906 105.422C284.328 106.953 285.039 109.211 285.039 112.195C285.039 115.102 284.32 117.344 282.883 118.922C281.461 120.484 279.695 121.266 277.586 121.266C275.508 121.266 273.773 120.492 272.383 118.945C271.008 117.383 270.32 115.047 270.32 111.938ZM277.68 106.008C276.617 106.008 275.734 106.461 275.031 107.367C274.344 108.273 274 109.938 274 112.359C274 114.547 274.352 116.094 275.055 117C275.758 117.906 276.625 118.359 277.656 118.359C278.734 118.359 279.617 117.906 280.305 117C281.008 116.094 281.359 114.438 281.359 112.031C281.359 109.812 281.008 108.258 280.305 107.367C279.602 106.461 278.727 106.008 277.68 106.008ZM293.945 130.102H290.922C295.594 122.602 297.93 115.094 297.93 107.578C297.93 104.641 297.594 101.727 296.922 98.8359C296.391 96.4922 295.648 94.2422 294.695 92.0859C294.086 90.6797 292.828 88.3359 290.922 85.0547H293.945C296.883 88.9766 299.055 92.9141 300.461 96.8672C301.664 100.273 302.266 103.836 302.266 107.555C302.266 111.773 301.453 115.852 299.828 119.789C298.219 123.727 296.258 127.164 293.945 130.102Z" fill="#F8F8F2"/>
<path d="M802.445 325.609V295.305H791.125V291.25H818.359V295.305H806.992V325.609H802.445ZM834.203 317.594L838.562 318.133C837.875 320.68 836.602 322.656 834.742 324.062C832.883 325.469 830.508 326.172 827.617 326.172C823.977 326.172 821.086 325.055 818.945 322.82C816.82 320.57 815.758 317.422 815.758 313.375C815.758 309.188 816.836 305.938 818.992 303.625C821.148 301.312 823.945 300.156 827.383 300.156C830.711 300.156 833.43 301.289 835.539 303.555C837.648 305.82 838.703 309.008 838.703 313.117C838.703 313.367 838.695 313.742 838.68 314.242H820.117C820.273 316.977 821.047 319.07 822.438 320.523C823.828 321.977 825.562 322.703 827.641 322.703C829.188 322.703 830.508 322.297 831.602 321.484C832.695 320.672 833.562 319.375 834.203 317.594ZM820.352 310.773H834.25C834.062 308.68 833.531 307.109 832.656 306.062C831.312 304.438 829.57 303.625 827.43 303.625C825.492 303.625 823.859 304.273 822.531 305.57C821.219 306.867 820.492 308.602 820.352 310.773ZM842.195 318.18L846.367 317.523C846.602 319.195 847.25 320.477 848.312 321.367C849.391 322.258 850.891 322.703 852.812 322.703C854.75 322.703 856.188 322.312 857.125 321.531C858.062 320.734 858.531 319.805 858.531 318.742C858.531 317.789 858.117 317.039 857.289 316.492C856.711 316.117 855.273 315.641 852.977 315.062C849.883 314.281 847.734 313.609 846.531 313.047C845.344 312.469 844.438 311.68 843.812 310.68C843.203 309.664 842.898 308.547 842.898 307.328C842.898 306.219 843.148 305.195 843.648 304.258C844.164 303.305 844.859 302.516 845.734 301.891C846.391 301.406 847.281 301 848.406 300.672C849.547 300.328 850.766 300.156 852.062 300.156C854.016 300.156 855.727 300.438 857.195 301C858.68 301.562 859.773 302.328 860.477 303.297C861.18 304.25 861.664 305.531 861.93 307.141L857.805 307.703C857.617 306.422 857.07 305.422 856.164 304.703C855.273 303.984 854.008 303.625 852.367 303.625C850.43 303.625 849.047 303.945 848.219 304.586C847.391 305.227 846.977 305.977 846.977 306.836C846.977 307.383 847.148 307.875 847.492 308.312C847.836 308.766 848.375 309.141 849.109 309.438C849.531 309.594 850.773 309.953 852.836 310.516C855.82 311.312 857.898 311.969 859.07 312.484C860.258 312.984 861.188 313.719 861.859 314.688C862.531 315.656 862.867 316.859 862.867 318.297C862.867 319.703 862.453 321.031 861.625 322.281C860.812 323.516 859.633 324.477 858.086 325.164C856.539 325.836 854.789 326.172 852.836 326.172C849.602 326.172 847.133 325.5 845.43 324.156C843.742 322.812 842.664 320.82 842.195 318.18ZM877.094 321.836L877.703 325.562C876.516 325.812 875.453 325.938 874.516 325.938C872.984 325.938 871.797 325.695 870.953 325.211C870.109 324.727 869.516 324.094 869.172 323.312C868.828 322.516 868.656 320.852 868.656 318.32V304H865.562V300.719H868.656V294.555L872.852 292.023V300.719H877.094V304H872.852V318.555C872.852 319.758 872.922 320.531 873.062 320.875C873.219 321.219 873.461 321.492 873.789 321.695C874.133 321.898 874.617 322 875.242 322C875.711 322 876.328 321.945 877.094 321.836ZM805.516 380.609V372.383H790.609V368.516L806.289 346.25H809.734V368.516H814.375V372.383H809.734V380.609H805.516ZM805.516 368.516V353.023L794.758 368.516H805.516ZM834.602 380.609H830.383V353.727C829.367 354.695 828.031 355.664 826.375 356.633C824.734 357.602 823.258 358.328 821.945 358.812V354.734C824.305 353.625 826.367 352.281 828.133 350.703C829.898 349.125 831.148 347.594 831.883 346.109H834.602V380.609ZM857.758 380.609H853.539V353.727C852.523 354.695 851.188 355.664 849.531 356.633C847.891 357.602 846.414 358.328 845.102 358.812V354.734C847.461 353.625 849.523 352.281 851.289 350.703C853.055 349.125 854.305 347.594 855.039 346.109H857.758V380.609ZM891.18 390.711C888.852 387.773 886.883 384.336 885.273 380.398C883.664 376.461 882.859 372.383 882.859 368.164C882.859 364.445 883.461 360.883 884.664 357.477C886.07 353.523 888.242 349.586 891.18 345.664H894.203C892.312 348.914 891.062 351.234 890.453 352.625C889.5 354.781 888.75 357.031 888.203 359.375C887.531 362.297 887.195 365.234 887.195 368.188C887.195 375.703 889.531 383.211 894.203 390.711H891.18ZM913.82 380.609H909.602V353.727C908.586 354.695 907.25 355.664 905.594 356.633C903.953 357.602 902.477 358.328 901.164 358.812V354.734C903.523 353.625 905.586 352.281 907.352 350.703C909.117 349.125 910.367 347.594 911.102 346.109H913.82V380.609ZM925.281 372.664L929.336 372.289C929.68 374.195 930.336 375.578 931.305 376.438C932.273 377.297 933.516 377.727 935.031 377.727C936.328 377.727 937.461 377.43 938.43 376.836C939.414 376.242 940.219 375.453 940.844 374.469C941.469 373.469 941.992 372.125 942.414 370.438C942.836 368.75 943.047 367.031 943.047 365.281C943.047 365.094 943.039 364.812 943.023 364.438C942.18 365.781 941.023 366.875 939.555 367.719C938.102 368.547 936.523 368.961 934.82 368.961C931.977 368.961 929.57 367.93 927.602 365.867C925.633 363.805 924.648 361.086 924.648 357.711C924.648 354.227 925.672 351.422 927.719 349.297C929.781 347.172 932.359 346.109 935.453 346.109C937.688 346.109 939.727 346.711 941.57 347.914C943.43 349.117 944.836 350.836 945.789 353.07C946.758 355.289 947.242 358.508 947.242 362.727C947.242 367.117 946.766 370.617 945.812 373.227C944.859 375.82 943.438 377.797 941.547 379.156C939.672 380.516 937.469 381.195 934.938 381.195C932.25 381.195 930.055 380.453 928.352 378.969C926.648 377.469 925.625 375.367 925.281 372.664ZM942.555 357.5C942.555 355.078 941.906 353.156 940.609 351.734C939.328 350.312 937.781 349.602 935.969 349.602C934.094 349.602 932.461 350.367 931.07 351.898C929.68 353.43 928.984 355.414 928.984 357.852C928.984 360.039 929.641 361.82 930.953 363.195C932.281 364.555 933.914 365.234 935.852 365.234C937.805 365.234 939.406 364.555 940.656 363.195C941.922 361.82 942.555 359.922 942.555 357.5ZM953.734 380.609V375.805H958.539V380.609H953.734ZM965.359 372.664L969.414 372.289C969.758 374.195 970.414 375.578 971.383 376.438C972.352 377.297 973.594 377.727 975.109 377.727C976.406 377.727 977.539 377.43 978.508 376.836C979.492 376.242 980.297 375.453 980.922 374.469C981.547 373.469 982.07 372.125 982.492 370.438C982.914 368.75 983.125 367.031 983.125 365.281C983.125 365.094 983.117 364.812 983.102 364.438C982.258 365.781 981.102 366.875 979.633 367.719C978.18 368.547 976.602 368.961 974.898 368.961C972.055 368.961 969.648 367.93 967.68 365.867C965.711 363.805 964.727 361.086 964.727 357.711C964.727 354.227 965.75 351.422 967.797 349.297C969.859 347.172 972.438 346.109 975.531 346.109C977.766 346.109 979.805 346.711 981.648 347.914C983.508 349.117 984.914 350.836 985.867 353.07C986.836 355.289 987.32 358.508 987.32 362.727C987.32 367.117 986.844 370.617 985.891 373.227C984.938 375.82 983.516 377.797 981.625 379.156C979.75 380.516 977.547 381.195 975.016 381.195C972.328 381.195 970.133 380.453 968.43 378.969C966.727 377.469 965.703 375.367 965.359 372.664ZM982.633 357.5C982.633 355.078 981.984 353.156 980.688 351.734C979.406 350.312 977.859 349.602 976.047 349.602C974.172 349.602 972.539 350.367 971.148 351.898C969.758 353.43 969.062 355.414 969.062 357.852C969.062 360.039 969.719 361.82 971.031 363.195C972.359 364.555 973.992 365.234 975.93 365.234C977.883 365.234 979.484 364.555 980.734 363.195C982 361.82 982.633 359.922 982.633 357.5ZM992.242 354.5C992.242 352.047 992.859 349.961 994.094 348.242C995.328 346.523 997.117 345.664 999.461 345.664C1001.62 345.664 1003.4 346.438 1004.8 347.984C1006.23 349.516 1006.94 351.773 1006.94 354.758C1006.94 357.664 1006.22 359.906 1004.78 361.484C1003.36 363.047 1001.6 363.828 999.508 363.828C997.43 363.828 995.695 363.055 994.305 361.508C992.93 359.961 992.242 357.625 992.242 354.5ZM999.578 348.57C998.531 348.57 997.656 349.023 996.953 349.93C996.266 350.836 995.922 352.5 995.922 354.922C995.922 357.125 996.273 358.68 996.977 359.586C997.68 360.477 998.547 360.922 999.578 360.922C1000.64 360.922 1001.52 360.469 1002.2 359.562C1002.91 358.656 1003.26 357 1003.26 354.594C1003.26 352.375 1002.91 350.82 1002.2 349.93C1001.5 349.023 1000.62 348.57 999.578 348.57ZM999.602 381.875L1018.4 345.664H1021.82L1003.09 381.875H999.602ZM1014.46 372.547C1014.46 370.078 1015.08 367.992 1016.31 366.289C1017.55 364.57 1019.34 363.711 1021.7 363.711C1023.86 363.711 1025.64 364.484 1027.05 366.031C1028.47 367.562 1029.18 369.82 1029.18 372.805C1029.18 375.711 1028.46 377.953 1027.02 379.531C1025.6 381.094 1023.84 381.875 1021.73 381.875C1019.65 381.875 1017.91 381.102 1016.52 379.555C1015.15 377.992 1014.46 375.656 1014.46 372.547ZM1021.82 366.617C1020.76 366.617 1019.88 367.07 1019.17 367.977C1018.48 368.883 1018.14 370.547 1018.14 372.969C1018.14 375.156 1018.49 376.703 1019.2 377.609C1019.9 378.516 1020.77 378.969 1021.8 378.969C1022.88 378.969 1023.76 378.516 1024.45 377.609C1025.15 376.703 1025.5 375.047 1025.5 372.641C1025.5 370.422 1025.15 368.867 1024.45 367.977C1023.74 367.07 1022.87 366.617 1021.82 366.617ZM1038.09 390.711H1035.06C1039.73 383.211 1042.07 375.703 1042.07 368.188C1042.07 365.25 1041.73 362.336 1041.06 359.445C1040.53 357.102 1039.79 354.852 1038.84 352.695C1038.23 351.289 1036.97 348.945 1035.06 345.664H1038.09C1041.02 349.586 1043.2 353.523 1044.6 357.477C1045.8 360.883 1046.41 364.445 1046.41 368.164C1046.41 372.383 1045.59 376.461 1043.97 380.398C1042.36 384.336 1040.4 387.773 1038.09 390.711Z" fill="#F8F8F2"/>
<path d="M1863.45 464V433.695H1852.12V429.641H1879.36V433.695H1867.99V464H1863.45ZM1895.2 455.984L1899.56 456.523C1898.88 459.07 1897.6 461.047 1895.74 462.453C1893.88 463.859 1891.51 464.562 1888.62 464.562C1884.98 464.562 1882.09 463.445 1879.95 461.211C1877.82 458.961 1876.76 455.812 1876.76 451.766C1876.76 447.578 1877.84 444.328 1879.99 442.016C1882.15 439.703 1884.95 438.547 1888.38 438.547C1891.71 438.547 1894.43 439.68 1896.54 441.945C1898.65 444.211 1899.7 447.398 1899.7 451.508C1899.7 451.758 1899.7 452.133 1899.68 452.633H1881.12C1881.27 455.367 1882.05 457.461 1883.44 458.914C1884.83 460.367 1886.56 461.094 1888.64 461.094C1890.19 461.094 1891.51 460.688 1892.6 459.875C1893.7 459.062 1894.56 457.766 1895.2 455.984ZM1881.35 449.164H1895.25C1895.06 447.07 1894.53 445.5 1893.66 444.453C1892.31 442.828 1890.57 442.016 1888.43 442.016C1886.49 442.016 1884.86 442.664 1883.53 443.961C1882.22 445.258 1881.49 446.992 1881.35 449.164ZM1903.2 456.57L1907.37 455.914C1907.6 457.586 1908.25 458.867 1909.31 459.758C1910.39 460.648 1911.89 461.094 1913.81 461.094C1915.75 461.094 1917.19 460.703 1918.12 459.922C1919.06 459.125 1919.53 458.195 1919.53 457.133C1919.53 456.18 1919.12 455.43 1918.29 454.883C1917.71 454.508 1916.27 454.031 1913.98 453.453C1910.88 452.672 1908.73 452 1907.53 451.438C1906.34 450.859 1905.44 450.07 1904.81 449.07C1904.2 448.055 1903.9 446.938 1903.9 445.719C1903.9 444.609 1904.15 443.586 1904.65 442.648C1905.16 441.695 1905.86 440.906 1906.73 440.281C1907.39 439.797 1908.28 439.391 1909.41 439.062C1910.55 438.719 1911.77 438.547 1913.06 438.547C1915.02 438.547 1916.73 438.828 1918.2 439.391C1919.68 439.953 1920.77 440.719 1921.48 441.688C1922.18 442.641 1922.66 443.922 1922.93 445.531L1918.8 446.094C1918.62 444.812 1918.07 443.812 1917.16 443.094C1916.27 442.375 1915.01 442.016 1913.37 442.016C1911.43 442.016 1910.05 442.336 1909.22 442.977C1908.39 443.617 1907.98 444.367 1907.98 445.227C1907.98 445.773 1908.15 446.266 1908.49 446.703C1908.84 447.156 1909.38 447.531 1910.11 447.828C1910.53 447.984 1911.77 448.344 1913.84 448.906C1916.82 449.703 1918.9 450.359 1920.07 450.875C1921.26 451.375 1922.19 452.109 1922.86 453.078C1923.53 454.047 1923.87 455.25 1923.87 456.688C1923.87 458.094 1923.45 459.422 1922.62 460.672C1921.81 461.906 1920.63 462.867 1919.09 463.555C1917.54 464.227 1915.79 464.562 1913.84 464.562C1910.6 464.562 1908.13 463.891 1906.43 462.547C1904.74 461.203 1903.66 459.211 1903.2 456.57ZM1938.09 460.227L1938.7 463.953C1937.52 464.203 1936.45 464.328 1935.52 464.328C1933.98 464.328 1932.8 464.086 1931.95 463.602C1931.11 463.117 1930.52 462.484 1930.17 461.703C1929.83 460.906 1929.66 459.242 1929.66 456.711V442.391H1926.56V439.109H1929.66V432.945L1933.85 430.414V439.109H1938.09V442.391H1933.85V456.945C1933.85 458.148 1933.92 458.922 1934.06 459.266C1934.22 459.609 1934.46 459.883 1934.79 460.086C1935.13 460.289 1935.62 460.391 1936.24 460.391C1936.71 460.391 1937.33 460.336 1938.09 460.227ZM1853.02 509.93L1857.23 509.367C1857.72 511.758 1858.54 513.484 1859.7 514.547C1860.87 515.594 1862.29 516.117 1863.96 516.117C1865.95 516.117 1867.62 515.43 1868.98 514.055C1870.35 512.68 1871.04 510.977 1871.04 508.945C1871.04 507.008 1870.41 505.414 1869.14 504.164C1867.88 502.898 1866.27 502.266 1864.31 502.266C1863.52 502.266 1862.52 502.422 1861.34 502.734L1861.8 499.031C1862.09 499.062 1862.31 499.078 1862.48 499.078C1864.28 499.078 1865.9 498.609 1867.34 497.672C1868.77 496.734 1869.49 495.289 1869.49 493.336C1869.49 491.789 1868.97 490.508 1867.92 489.492C1866.88 488.477 1865.52 487.969 1863.87 487.969C1862.23 487.969 1860.86 488.484 1859.77 489.516C1858.67 490.547 1857.97 492.094 1857.66 494.156L1853.44 493.406C1853.95 490.578 1855.12 488.391 1856.95 486.844C1858.78 485.281 1861.05 484.5 1863.77 484.5C1865.65 484.5 1867.38 484.906 1868.95 485.719C1870.53 486.516 1871.73 487.609 1872.56 489C1873.41 490.391 1873.83 491.867 1873.83 493.43C1873.83 494.914 1873.43 496.266 1872.63 497.484C1871.84 498.703 1870.66 499.672 1869.09 500.391C1871.12 500.859 1872.7 501.836 1873.83 503.32C1874.95 504.789 1875.52 506.633 1875.52 508.852C1875.52 511.852 1874.42 514.398 1872.23 516.492C1870.05 518.57 1867.28 519.609 1863.94 519.609C1860.92 519.609 1858.41 518.711 1856.41 516.914C1854.43 515.117 1853.3 512.789 1853.02 509.93ZM1893.23 519V510.773H1878.33V506.906L1894.01 484.641H1897.45V506.906H1902.09V510.773H1897.45V519H1893.23ZM1893.23 506.906V491.414L1882.48 506.906H1893.23ZM1906.45 509.93L1910.67 509.367C1911.16 511.758 1911.98 513.484 1913.13 514.547C1914.3 515.594 1915.73 516.117 1917.4 516.117C1919.38 516.117 1921.05 515.43 1922.41 514.055C1923.79 512.68 1924.48 510.977 1924.48 508.945C1924.48 507.008 1923.84 505.414 1922.58 504.164C1921.31 502.898 1919.7 502.266 1917.75 502.266C1916.95 502.266 1915.96 502.422 1914.77 502.734L1915.24 499.031C1915.52 499.062 1915.75 499.078 1915.92 499.078C1917.72 499.078 1919.34 498.609 1920.77 497.672C1922.21 496.734 1922.93 495.289 1922.93 493.336C1922.93 491.789 1922.41 490.508 1921.36 489.492C1920.31 488.477 1918.96 487.969 1917.3 487.969C1915.66 487.969 1914.3 488.484 1913.2 489.516C1912.11 490.547 1911.41 492.094 1911.09 494.156L1906.88 493.406C1907.39 490.578 1908.56 488.391 1910.39 486.844C1912.22 485.281 1914.49 484.5 1917.21 484.5C1919.09 484.5 1920.81 484.906 1922.39 485.719C1923.97 486.516 1925.17 487.609 1926 489C1926.84 490.391 1927.27 491.867 1927.27 493.43C1927.27 494.914 1926.87 496.266 1926.07 497.484C1925.27 498.703 1924.09 499.672 1922.53 500.391C1924.56 500.859 1926.14 501.836 1927.27 503.32C1928.39 504.789 1928.95 506.633 1928.95 508.852C1928.95 511.852 1927.86 514.398 1925.67 516.492C1923.48 518.57 1920.72 519.609 1917.38 519.609C1914.36 519.609 1911.85 518.711 1909.85 516.914C1907.87 515.117 1906.73 512.789 1906.45 509.93ZM1935.42 519V514.195H1940.23V519C1940.23 520.766 1939.91 522.188 1939.29 523.266C1938.66 524.359 1937.67 525.203 1936.31 525.797L1935.14 523.992C1936.03 523.602 1936.69 523.023 1937.11 522.258C1937.53 521.508 1937.77 520.422 1937.81 519H1935.42ZM1968.68 514.945V519H1945.97C1945.94 517.984 1946.1 517.008 1946.46 516.07C1947.04 514.523 1947.96 513 1949.23 511.5C1950.51 510 1952.35 508.266 1954.76 506.297C1958.49 503.234 1961.02 500.812 1962.33 499.031C1963.64 497.234 1964.3 495.539 1964.3 493.945C1964.3 492.273 1963.7 490.867 1962.49 489.727C1961.3 488.57 1959.75 487.992 1957.83 487.992C1955.8 487.992 1954.17 488.602 1952.95 489.82C1951.73 491.039 1951.12 492.727 1951.1 494.883L1946.77 494.438C1947.06 491.203 1948.18 488.742 1950.12 487.055C1952.05 485.352 1954.66 484.5 1957.92 484.5C1961.22 484.5 1963.83 485.414 1965.75 487.242C1967.67 489.07 1968.63 491.336 1968.63 494.039C1968.63 495.414 1968.35 496.766 1967.79 498.094C1967.23 499.422 1966.29 500.82 1964.98 502.289C1963.68 503.758 1961.52 505.773 1958.48 508.336C1955.95 510.461 1954.33 511.906 1953.61 512.672C1952.89 513.422 1952.3 514.18 1951.83 514.945H1968.68ZM1986.75 519V510.773H1971.84V506.906L1987.52 484.641H1990.97V506.906H1995.61V510.773H1990.97V519H1986.75ZM1986.75 506.906V491.414L1975.99 506.906H1986.75ZM1999.95 502.055C1999.95 497.992 2000.36 494.727 2001.19 492.258C2002.03 489.773 2003.27 487.859 2004.91 486.516C2006.57 485.172 2008.65 484.5 2011.15 484.5C2012.99 484.5 2014.61 484.875 2016 485.625C2017.39 486.359 2018.54 487.43 2019.45 488.836C2020.35 490.227 2021.06 491.93 2021.58 493.945C2022.09 495.945 2022.35 498.648 2022.35 502.055C2022.35 506.086 2021.94 509.344 2021.11 511.828C2020.28 514.297 2019.04 516.211 2017.38 517.57C2015.74 518.914 2013.66 519.586 2011.15 519.586C2007.84 519.586 2005.23 518.398 2003.34 516.023C2001.08 513.164 1999.95 508.508 1999.95 502.055ZM2004.28 502.055C2004.28 507.695 2004.94 511.453 2006.25 513.328C2007.58 515.188 2009.21 516.117 2011.15 516.117C2013.09 516.117 2014.71 515.18 2016.02 513.305C2017.35 511.43 2018.02 507.68 2018.02 502.055C2018.02 496.398 2017.35 492.641 2016.02 490.781C2014.71 488.922 2013.07 487.992 2011.1 487.992C2009.16 487.992 2007.62 488.812 2006.46 490.453C2005.01 492.547 2004.28 496.414 2004.28 502.055ZM2049.26 529.102C2046.93 526.164 2044.96 522.727 2043.35 518.789C2041.74 514.852 2040.94 510.773 2040.94 506.555C2040.94 502.836 2041.54 499.273 2042.74 495.867C2044.15 491.914 2046.32 487.977 2049.26 484.055H2052.28C2050.39 487.305 2049.14 489.625 2048.53 491.016C2047.58 493.172 2046.83 495.422 2046.28 497.766C2045.61 500.688 2045.27 503.625 2045.27 506.578C2045.27 514.094 2047.61 521.602 2052.28 529.102H2049.26ZM2078.18 514.945V519H2055.47C2055.44 517.984 2055.6 517.008 2055.96 516.07C2056.54 514.523 2057.46 513 2058.73 511.5C2060.01 510 2061.85 508.266 2064.26 506.297C2067.99 503.234 2070.52 500.812 2071.83 499.031C2073.14 497.234 2073.8 495.539 2073.8 493.945C2073.8 492.273 2073.2 490.867 2071.99 489.727C2070.8 488.57 2069.25 487.992 2067.33 487.992C2065.3 487.992 2063.67 488.602 2062.45 489.82C2061.23 491.039 2060.62 492.727 2060.6 494.883L2056.27 494.438C2056.56 491.203 2057.68 488.742 2059.62 487.055C2061.55 485.352 2064.16 484.5 2067.42 484.5C2070.72 484.5 2073.33 485.414 2075.25 487.242C2077.17 489.07 2078.13 491.336 2078.13 494.039C2078.13 495.414 2077.85 496.766 2077.29 498.094C2076.73 499.422 2075.79 500.82 2074.48 502.289C2073.18 503.758 2071.02 505.773 2067.98 508.336C2065.45 510.461 2063.83 511.906 2063.11 512.672C2062.39 513.422 2061.8 514.18 2061.33 514.945H2078.18ZM2083.36 511.055L2087.41 510.68C2087.76 512.586 2088.41 513.969 2089.38 514.828C2090.35 515.688 2091.59 516.117 2093.11 516.117C2094.41 516.117 2095.54 515.82 2096.51 515.227C2097.49 514.633 2098.3 513.844 2098.92 512.859C2099.55 511.859 2100.07 510.516 2100.49 508.828C2100.91 507.141 2101.12 505.422 2101.12 503.672C2101.12 503.484 2101.12 503.203 2101.1 502.828C2100.26 504.172 2099.1 505.266 2097.63 506.109C2096.18 506.938 2094.6 507.352 2092.9 507.352C2090.05 507.352 2087.65 506.32 2085.68 504.258C2083.71 502.195 2082.73 499.477 2082.73 496.102C2082.73 492.617 2083.75 489.812 2085.8 487.688C2087.86 485.562 2090.44 484.5 2093.53 484.5C2095.77 484.5 2097.8 485.102 2099.65 486.305C2101.51 487.508 2102.91 489.227 2103.87 491.461C2104.84 493.68 2105.32 496.898 2105.32 501.117C2105.32 505.508 2104.84 509.008 2103.89 511.617C2102.94 514.211 2101.52 516.188 2099.62 517.547C2097.75 518.906 2095.55 519.586 2093.02 519.586C2090.33 519.586 2088.13 518.844 2086.43 517.359C2084.73 515.859 2083.7 513.758 2083.36 511.055ZM2100.63 495.891C2100.63 493.469 2099.98 491.547 2098.69 490.125C2097.41 488.703 2095.86 487.992 2094.05 487.992C2092.17 487.992 2090.54 488.758 2089.15 490.289C2087.76 491.82 2087.06 493.805 2087.06 496.242C2087.06 498.43 2087.72 500.211 2089.03 501.586C2090.36 502.945 2091.99 503.625 2093.93 503.625C2095.88 503.625 2097.48 502.945 2098.73 501.586C2100 500.211 2100.63 498.312 2100.63 495.891ZM2111.81 519V514.195H2116.62V519H2111.81ZM2123.44 511.055L2127.49 510.68C2127.84 512.586 2128.49 513.969 2129.46 514.828C2130.43 515.688 2131.67 516.117 2133.19 516.117C2134.48 516.117 2135.62 515.82 2136.59 515.227C2137.57 514.633 2138.38 513.844 2139 512.859C2139.62 511.859 2140.15 510.516 2140.57 508.828C2140.99 507.141 2141.2 505.422 2141.2 503.672C2141.2 503.484 2141.2 503.203 2141.18 502.828C2140.34 504.172 2139.18 505.266 2137.71 506.109C2136.26 506.938 2134.68 507.352 2132.98 507.352C2130.13 507.352 2127.73 506.32 2125.76 504.258C2123.79 502.195 2122.8 499.477 2122.8 496.102C2122.8 492.617 2123.83 489.812 2125.88 487.688C2127.94 485.562 2130.52 484.5 2133.61 484.5C2135.84 484.5 2137.88 485.102 2139.73 486.305C2141.59 487.508 2142.99 489.227 2143.95 491.461C2144.91 493.68 2145.4 496.898 2145.4 501.117C2145.4 505.508 2144.92 509.008 2143.97 511.617C2143.02 514.211 2141.59 516.188 2139.7 517.547C2137.83 518.906 2135.62 519.586 2133.09 519.586C2130.41 519.586 2128.21 518.844 2126.51 517.359C2124.8 515.859 2123.78 513.758 2123.44 511.055ZM2140.71 495.891C2140.71 493.469 2140.06 491.547 2138.77 490.125C2137.48 488.703 2135.94 487.992 2134.12 487.992C2132.25 487.992 2130.62 488.758 2129.23 490.289C2127.84 491.82 2127.14 493.805 2127.14 496.242C2127.14 498.43 2127.8 500.211 2129.11 501.586C2130.44 502.945 2132.07 503.625 2134.01 503.625C2135.96 503.625 2137.56 502.945 2138.81 501.586C2140.08 500.211 2140.71 498.312 2140.71 495.891ZM2150.32 492.891C2150.32 490.438 2150.94 488.352 2152.17 486.633C2153.41 484.914 2155.2 484.055 2157.54 484.055C2159.7 484.055 2161.48 484.828 2162.88 486.375C2164.3 487.906 2165.02 490.164 2165.02 493.148C2165.02 496.055 2164.3 498.297 2162.86 499.875C2161.44 501.438 2159.68 502.219 2157.59 502.219C2155.51 502.219 2153.77 501.445 2152.38 499.898C2151.01 498.352 2150.32 496.016 2150.32 492.891ZM2157.66 486.961C2156.61 486.961 2155.73 487.414 2155.03 488.32C2154.34 489.227 2154 490.891 2154 493.312C2154 495.516 2154.35 497.07 2155.05 497.977C2155.76 498.867 2156.62 499.312 2157.66 499.312C2158.72 499.312 2159.59 498.859 2160.28 497.953C2160.98 497.047 2161.34 495.391 2161.34 492.984C2161.34 490.766 2160.98 489.211 2160.28 488.32C2159.58 487.414 2158.7 486.961 2157.66 486.961ZM2157.68 520.266L2176.48 484.055H2179.9L2161.17 520.266H2157.68ZM2172.54 510.938C2172.54 508.469 2173.16 506.383 2174.39 504.68C2175.62 502.961 2177.42 502.102 2179.78 502.102C2181.94 502.102 2183.72 502.875 2185.12 504.422C2186.55 505.953 2187.26 508.211 2187.26 511.195C2187.26 514.102 2186.54 516.344 2185.1 517.922C2183.68 519.484 2181.91 520.266 2179.8 520.266C2177.73 520.266 2175.99 519.492 2174.6 517.945C2173.23 516.383 2172.54 514.047 2172.54 510.938ZM2179.9 505.008C2178.84 505.008 2177.95 505.461 2177.25 506.367C2176.56 507.273 2176.22 508.938 2176.22 511.359C2176.22 513.547 2176.57 515.094 2177.27 516C2177.98 516.906 2178.84 517.359 2179.88 517.359C2180.95 517.359 2181.84 516.906 2182.52 516C2183.23 515.094 2183.58 513.438 2183.58 511.031C2183.58 508.812 2183.23 507.258 2182.52 506.367C2181.82 505.461 2180.95 505.008 2179.9 505.008ZM2196.16 529.102H2193.14C2197.81 521.602 2200.15 514.094 2200.15 506.578C2200.15 503.641 2199.81 500.727 2199.14 497.836C2198.61 495.492 2197.87 493.242 2196.91 491.086C2196.3 489.68 2195.05 487.336 2193.14 484.055H2196.16C2199.1 487.977 2201.27 491.914 2202.68 495.867C2203.88 499.273 2204.48 502.836 2204.48 506.555C2204.48 510.773 2203.67 514.852 2202.05 518.789C2200.44 522.727 2198.48 526.164 2196.16 529.102Z" fill="#F8F8F2"/>
<path d="M6 133L299.5 133L329.5 150" stroke="#F8F8F2" stroke-width="2" stroke-linecap="square"/>
<path d="M1079.5 109L1415 109L1437.5 126" stroke="#F8F8F2" stroke-width="2" stroke-linecap="square"/>
<path d="M1100 508L1408.14 508L1498.5 483.5" stroke="#F8F8F2" stroke-width="2" stroke-linecap="square"/>
<path d="M1046 392L796 392L767.5 368.5" stroke="#F8F8F2" stroke-width="2" stroke-linecap="square"/>
<path d="M1333.77 44V13.6953H1322.45V9.64062H1349.69V13.6953H1338.32V44H1333.77ZM1352.01 44V19.1094H1355.8V22.8828C1356.77 21.1172 1357.66 19.9531 1358.48 19.3906C1359.3 18.8281 1360.21 18.5469 1361.2 18.5469C1362.62 18.5469 1364.06 19 1365.53 19.9062L1364.08 23.8203C1363.05 23.2109 1362.02 22.9062 1360.98 22.9062C1360.06 22.9062 1359.23 23.1875 1358.5 23.75C1357.77 24.2969 1357.24 25.0625 1356.93 26.0469C1356.46 27.5469 1356.23 29.1875 1356.23 30.9688V44H1352.01ZM1384.28 40.9297C1382.72 42.2578 1381.21 43.1953 1379.76 43.7422C1378.32 44.2891 1376.77 44.5625 1375.12 44.5625C1372.38 44.5625 1370.28 43.8984 1368.81 42.5703C1367.34 41.2266 1366.61 39.5156 1366.61 37.4375C1366.61 36.2188 1366.88 35.1094 1367.43 34.1094C1367.99 33.0938 1368.72 32.2812 1369.61 31.6719C1370.52 31.0625 1371.53 30.6016 1372.66 30.2891C1373.48 30.0703 1374.73 29.8594 1376.41 29.6562C1379.81 29.25 1382.32 28.7656 1383.93 28.2031C1383.95 27.625 1383.95 27.2578 1383.95 27.1016C1383.95 25.3828 1383.55 24.1719 1382.76 23.4688C1381.68 22.5156 1380.08 22.0391 1377.95 22.0391C1375.97 22.0391 1374.5 22.3906 1373.55 23.0938C1372.61 23.7812 1371.91 25.0078 1371.46 26.7734L1367.34 26.2109C1367.71 24.4453 1368.33 23.0234 1369.19 21.9453C1370.05 20.8516 1371.29 20.0156 1372.91 19.4375C1374.54 18.8438 1376.42 18.5469 1378.56 18.5469C1380.69 18.5469 1382.41 18.7969 1383.74 19.2969C1385.07 19.7969 1386.05 20.4297 1386.67 21.1953C1387.3 21.9453 1387.73 22.8984 1387.98 24.0547C1388.12 24.7734 1388.2 26.0703 1388.2 27.9453V33.5703C1388.2 37.4922 1388.28 39.9766 1388.45 41.0234C1388.64 42.0547 1389 43.0469 1389.53 44H1385.12C1384.69 43.125 1384.41 42.1016 1384.28 40.9297ZM1383.93 31.5078C1382.4 32.1328 1380.1 32.6641 1377.04 33.1016C1375.3 33.3516 1374.08 33.6328 1373.36 33.9453C1372.64 34.2578 1372.09 34.7188 1371.7 35.3281C1371.3 35.9219 1371.11 36.5859 1371.11 37.3203C1371.11 38.4453 1371.53 39.3828 1372.38 40.1328C1373.23 40.8828 1374.48 41.2578 1376.12 41.2578C1377.75 41.2578 1379.2 40.9062 1380.46 40.2031C1381.73 39.4844 1382.66 38.5078 1383.25 37.2734C1383.7 36.3203 1383.93 34.9141 1383.93 33.0547V31.5078ZM1394.78 14.4922V9.64062H1399V14.4922H1394.78ZM1394.78 44V19.1094H1399V44H1394.78ZM1405.45 44V19.1094H1409.24V22.6484C1411.07 19.9141 1413.71 18.5469 1417.16 18.5469C1418.66 18.5469 1420.04 18.8203 1421.29 19.3672C1422.55 19.8984 1423.5 20.6016 1424.12 21.4766C1424.75 22.3516 1425.19 23.3906 1425.44 24.5938C1425.59 25.375 1425.67 26.7422 1425.67 28.6953V44H1421.45V28.8594C1421.45 27.1406 1421.29 25.8594 1420.96 25.0156C1420.63 24.1562 1420.05 23.4766 1419.2 22.9766C1418.38 22.4609 1417.4 22.2031 1416.27 22.2031C1414.48 22.2031 1412.92 22.7734 1411.61 23.9141C1410.31 25.0547 1409.66 27.2188 1409.66 30.4062V44H1405.45ZM1076.05 69.1406V65.0859H1098.3V68.3672C1096.11 70.6953 1093.94 73.7891 1091.78 77.6484C1089.64 81.5078 1087.98 85.4766 1086.81 89.5547C1085.97 92.4297 1085.43 95.5781 1085.2 99H1080.86C1080.91 96.2969 1081.44 93.0312 1082.45 89.2031C1083.47 85.375 1084.92 81.6875 1086.81 78.1406C1088.72 74.5781 1090.74 71.5781 1092.88 69.1406H1076.05ZM1116.02 99V90.7734H1101.11V86.9062L1116.79 64.6406H1120.23V86.9062H1124.88V90.7734H1120.23V99H1116.02ZM1116.02 86.9062V71.4141L1105.26 86.9062H1116.02ZM1151.1 73.0547L1146.91 73.3828C1146.53 71.7266 1146 70.5234 1145.31 69.7734C1144.17 68.5703 1142.77 67.9688 1141.09 67.9688C1139.75 67.9688 1138.57 68.3438 1137.55 69.0938C1136.23 70.0625 1135.18 71.4766 1134.41 73.3359C1133.65 75.1953 1133.25 77.8438 1133.22 81.2812C1134.23 79.7344 1135.48 78.5859 1136.95 77.8359C1138.41 77.0859 1139.95 76.7109 1141.56 76.7109C1144.38 76.7109 1146.77 77.75 1148.73 79.8281C1150.72 81.8906 1151.71 84.5625 1151.71 87.8438C1151.71 90 1151.24 92.0078 1150.3 93.8672C1149.38 95.7109 1148.11 97.125 1146.48 98.1094C1144.86 99.0938 1143.02 99.5859 1140.95 99.5859C1137.44 99.5859 1134.57 98.2969 1132.35 95.7188C1130.13 93.125 1129.02 88.8594 1129.02 82.9219C1129.02 76.2812 1130.25 71.4531 1132.7 68.4375C1134.84 65.8125 1137.73 64.5 1141.35 64.5C1144.05 64.5 1146.27 65.2578 1147.98 66.7734C1149.72 68.2891 1150.76 70.3828 1151.1 73.0547ZM1133.88 87.8672C1133.88 89.3203 1134.18 90.7109 1134.79 92.0391C1135.41 93.3672 1136.28 94.3828 1137.39 95.0859C1138.5 95.7734 1139.66 96.1172 1140.88 96.1172C1142.66 96.1172 1144.2 95.3984 1145.48 93.9609C1146.76 92.5234 1147.4 90.5703 1147.4 88.1016C1147.4 85.7266 1146.77 83.8594 1145.5 82.5C1144.23 81.125 1142.64 80.4375 1140.72 80.4375C1138.81 80.4375 1137.2 81.125 1135.87 82.5C1134.54 83.8594 1133.88 85.6484 1133.88 87.8672ZM1158.2 99V94.1953H1163.01V99C1163.01 100.766 1162.7 102.188 1162.07 103.266C1161.45 104.359 1160.45 105.203 1159.09 105.797L1157.92 103.992C1158.81 103.602 1159.47 103.023 1159.89 102.258C1160.31 101.508 1160.55 100.422 1160.59 99H1158.2ZM1185.18 99H1180.96V72.1172C1179.95 73.0859 1178.61 74.0547 1176.95 75.0234C1175.31 75.9922 1173.84 76.7188 1172.52 77.2031V73.125C1174.88 72.0156 1176.95 70.6719 1178.71 69.0938C1180.48 67.5156 1181.73 65.9844 1182.46 64.5H1185.18V99ZM1202.5 80.3672C1200.75 79.7266 1199.45 78.8125 1198.61 77.625C1197.77 76.4375 1197.34 75.0156 1197.34 73.3594C1197.34 70.8594 1198.24 68.7578 1200.04 67.0547C1201.84 65.3516 1204.23 64.5 1207.21 64.5C1210.21 64.5 1212.62 65.375 1214.45 67.125C1216.28 68.8594 1217.2 70.9766 1217.2 73.4766C1217.2 75.0703 1216.77 76.4609 1215.93 77.6484C1215.1 78.8203 1213.84 79.7266 1212.13 80.3672C1214.24 81.0547 1215.84 82.1641 1216.94 83.6953C1218.05 85.2266 1218.6 87.0547 1218.6 89.1797C1218.6 92.1172 1217.56 94.5859 1215.48 96.5859C1213.41 98.5859 1210.67 99.5859 1207.28 99.5859C1203.89 99.5859 1201.16 98.5859 1199.08 96.5859C1197 94.5703 1195.96 92.0625 1195.96 89.0625C1195.96 86.8281 1196.52 84.9609 1197.65 83.4609C1198.79 81.9453 1200.41 80.9141 1202.5 80.3672ZM1201.66 73.2188C1201.66 74.8438 1202.18 76.1719 1203.23 77.2031C1204.27 78.2344 1205.63 78.75 1207.3 78.75C1208.93 78.75 1210.26 78.2422 1211.29 77.2266C1212.34 76.1953 1212.86 74.9375 1212.86 73.4531C1212.86 71.9062 1212.32 70.6094 1211.24 69.5625C1210.18 68.5 1208.85 67.9688 1207.26 67.9688C1205.65 67.9688 1204.31 68.4844 1203.25 69.5156C1202.19 70.5469 1201.66 71.7812 1201.66 73.2188ZM1200.3 89.0859C1200.3 90.2891 1200.58 91.4531 1201.14 92.5781C1201.72 93.7031 1202.57 94.5781 1203.7 95.2031C1204.82 95.8125 1206.03 96.1172 1207.33 96.1172C1209.34 96.1172 1211.01 95.4688 1212.32 94.1719C1213.63 92.875 1214.29 91.2266 1214.29 89.2266C1214.29 87.1953 1213.61 85.5156 1212.25 84.1875C1210.91 82.8594 1209.22 82.1953 1207.19 82.1953C1205.2 82.1953 1203.55 82.8516 1202.24 84.1641C1200.95 85.4766 1200.3 87.1172 1200.3 89.0859ZM1222.73 82.0547C1222.73 77.9922 1223.14 74.7266 1223.97 72.2578C1224.81 69.7734 1226.05 67.8594 1227.7 66.5156C1229.35 65.1719 1231.43 64.5 1233.93 64.5C1235.77 64.5 1237.39 64.875 1238.78 65.625C1240.17 66.3594 1241.32 67.4297 1242.23 68.8359C1243.13 70.2266 1243.84 71.9297 1244.36 73.9453C1244.88 75.9453 1245.13 78.6484 1245.13 82.0547C1245.13 86.0859 1244.72 89.3438 1243.89 91.8281C1243.06 94.2969 1241.82 96.2109 1240.16 97.5703C1238.52 98.9141 1236.45 99.5859 1233.93 99.5859C1230.62 99.5859 1228.02 98.3984 1226.12 96.0234C1223.86 93.1641 1222.73 88.5078 1222.73 82.0547ZM1227.06 82.0547C1227.06 87.6953 1227.72 91.4531 1229.03 93.3281C1230.36 95.1875 1231.99 96.1172 1233.93 96.1172C1235.87 96.1172 1237.49 95.1797 1238.8 93.3047C1240.13 91.4297 1240.8 87.6797 1240.8 82.0547C1240.8 76.3984 1240.13 72.6406 1238.8 70.7812C1237.49 68.9219 1235.85 67.9922 1233.88 67.9922C1231.95 67.9922 1230.4 68.8125 1229.24 70.4531C1227.79 72.5469 1227.06 76.4141 1227.06 82.0547ZM1272.04 109.102C1269.71 106.164 1267.74 102.727 1266.13 98.7891C1264.52 94.8516 1263.72 90.7734 1263.72 86.5547C1263.72 82.8359 1264.32 79.2734 1265.52 75.8672C1266.93 71.9141 1269.1 67.9766 1272.04 64.0547H1275.06C1273.17 67.3047 1271.92 69.625 1271.31 71.0156C1270.36 73.1719 1269.61 75.4219 1269.06 77.7656C1268.39 80.6875 1268.05 83.625 1268.05 86.5781C1268.05 94.0938 1270.39 101.602 1275.06 109.102H1272.04ZM1300.68 73.0547L1296.48 73.3828C1296.11 71.7266 1295.58 70.5234 1294.89 69.7734C1293.75 68.5703 1292.34 67.9688 1290.67 67.9688C1289.33 67.9688 1288.15 68.3438 1287.13 69.0938C1285.8 70.0625 1284.76 71.4766 1283.99 73.3359C1283.23 75.1953 1282.83 77.8438 1282.8 81.2812C1283.81 79.7344 1285.05 78.5859 1286.52 77.8359C1287.99 77.0859 1289.53 76.7109 1291.14 76.7109C1293.95 76.7109 1296.34 77.75 1298.31 79.8281C1300.3 81.8906 1301.29 84.5625 1301.29 87.8438C1301.29 90 1300.82 92.0078 1299.88 93.8672C1298.96 95.7109 1297.69 97.125 1296.06 98.1094C1294.44 99.0938 1292.59 99.5859 1290.53 99.5859C1287.02 99.5859 1284.15 98.2969 1281.93 95.7188C1279.71 93.125 1278.6 88.8594 1278.6 82.9219C1278.6 76.2812 1279.83 71.4531 1282.28 68.4375C1284.42 65.8125 1287.3 64.5 1290.93 64.5C1293.63 64.5 1295.84 65.2578 1297.56 66.7734C1299.3 68.2891 1300.34 70.3828 1300.68 73.0547ZM1283.45 87.8672C1283.45 89.3203 1283.76 90.7109 1284.37 92.0391C1284.99 93.3672 1285.86 94.3828 1286.97 95.0859C1288.08 95.7734 1289.24 96.1172 1290.46 96.1172C1292.24 96.1172 1293.77 95.3984 1295.05 93.9609C1296.34 92.5234 1296.98 90.5703 1296.98 88.1016C1296.98 85.7266 1296.34 83.8594 1295.08 82.5C1293.81 81.125 1292.22 80.4375 1290.3 80.4375C1288.39 80.4375 1286.77 81.125 1285.45 82.5C1284.12 83.8594 1283.45 85.6484 1283.45 87.8672ZM1305.51 90L1309.94 89.625C1310.27 91.7812 1311.02 93.4062 1312.21 94.5C1313.41 95.5781 1314.86 96.1172 1316.55 96.1172C1318.58 96.1172 1320.3 95.3516 1321.7 93.8203C1323.11 92.2891 1323.81 90.2578 1323.81 87.7266C1323.81 85.3203 1323.13 83.4219 1321.77 82.0312C1320.43 80.6406 1318.66 79.9453 1316.48 79.9453C1315.12 79.9453 1313.89 80.2578 1312.8 80.8828C1311.7 81.4922 1310.84 82.2891 1310.22 83.2734L1306.26 82.7578L1309.59 65.1094H1326.67V69.1406H1312.96L1311.11 78.375C1313.17 76.9375 1315.34 76.2188 1317.6 76.2188C1320.6 76.2188 1323.13 77.2578 1325.2 79.3359C1327.26 81.4141 1328.29 84.0859 1328.29 87.3516C1328.29 90.4609 1327.38 93.1484 1325.57 95.4141C1323.37 98.1953 1320.36 99.5859 1316.55 99.5859C1313.42 99.5859 1310.87 98.7109 1308.88 96.9609C1306.91 95.2109 1305.79 92.8906 1305.51 90ZM1334.59 99V94.1953H1339.4V99H1334.59ZM1361.48 99H1357.26V72.1172C1356.24 73.0859 1354.91 74.0547 1353.25 75.0234C1351.61 75.9922 1350.13 76.7188 1348.82 77.2031V73.125C1351.18 72.0156 1353.24 70.6719 1355.01 69.0938C1356.77 67.5156 1358.02 65.9844 1358.76 64.5H1361.48V99ZM1373.1 72.8906C1373.1 70.4375 1373.72 68.3516 1374.95 66.6328C1376.19 64.9141 1377.98 64.0547 1380.32 64.0547C1382.48 64.0547 1384.26 64.8281 1385.66 66.375C1387.09 67.9062 1387.8 70.1641 1387.8 73.1484C1387.8 76.0547 1387.08 78.2969 1385.64 79.875C1384.22 81.4375 1382.46 82.2188 1380.37 82.2188C1378.29 82.2188 1376.55 81.4453 1375.16 79.8984C1373.79 78.3516 1373.1 76.0156 1373.1 72.8906ZM1380.44 66.9609C1379.39 66.9609 1378.52 67.4141 1377.81 68.3203C1377.12 69.2266 1376.78 70.8906 1376.78 73.3125C1376.78 75.5156 1377.13 77.0703 1377.84 77.9766C1378.54 78.8672 1379.41 79.3125 1380.44 79.3125C1381.5 79.3125 1382.38 78.8594 1383.06 77.9531C1383.77 77.0469 1384.12 75.3906 1384.12 72.9844C1384.12 70.7656 1383.77 69.2109 1383.06 68.3203C1382.36 67.4141 1381.48 66.9609 1380.44 66.9609ZM1380.46 100.266L1399.26 64.0547H1402.68L1383.95 100.266H1380.46ZM1395.32 90.9375C1395.32 88.4688 1395.94 86.3828 1397.17 84.6797C1398.41 82.9609 1400.2 82.1016 1402.56 82.1016C1404.72 82.1016 1406.5 82.875 1407.91 84.4219C1409.33 85.9531 1410.04 88.2109 1410.04 91.1953C1410.04 94.1016 1409.32 96.3438 1407.88 97.9219C1406.46 99.4844 1404.7 100.266 1402.59 100.266C1400.51 100.266 1398.77 99.4922 1397.38 97.9453C1396.01 96.3828 1395.32 94.0469 1395.32 90.9375ZM1402.68 85.0078C1401.62 85.0078 1400.73 85.4609 1400.03 86.3672C1399.34 87.2734 1399 88.9375 1399 91.3594C1399 93.5469 1399.35 95.0938 1400.05 96C1400.76 96.9062 1401.62 97.3594 1402.66 97.3594C1403.73 97.3594 1404.62 96.9062 1405.3 96C1406.01 95.0938 1406.36 93.4375 1406.36 91.0312C1406.36 88.8125 1406.01 87.2578 1405.3 86.3672C1404.6 85.4609 1403.73 85.0078 1402.68 85.0078ZM1418.95 109.102H1415.92C1420.59 101.602 1422.93 94.0938 1422.93 86.5781C1422.93 83.6406 1422.59 80.7266 1421.92 77.8359C1421.39 75.4922 1420.65 73.2422 1419.7 71.0859C1419.09 69.6797 1417.83 67.3359 1415.92 64.0547H1418.95C1421.88 67.9766 1424.05 71.9141 1425.46 75.8672C1426.66 79.2734 1427.27 82.8359 1427.27 86.5547C1427.27 90.7734 1426.45 94.8516 1424.83 98.7891C1423.22 102.727 1421.26 106.164 1418.95 109.102Z" fill="#F8F8F2"/>
<path d="M1362.66 441L1349.35 406.641H1354.27L1363.2 431.602C1363.92 433.602 1364.52 435.477 1365.01 437.227C1365.54 435.352 1366.16 433.477 1366.86 431.602L1376.14 406.641H1380.78L1367.33 441H1362.66ZM1397 437.93C1395.44 439.258 1393.93 440.195 1392.48 440.742C1391.04 441.289 1389.49 441.562 1387.84 441.562C1385.1 441.562 1383 440.898 1381.53 439.57C1380.06 438.227 1379.33 436.516 1379.33 434.438C1379.33 433.219 1379.6 432.109 1380.15 431.109C1380.71 430.094 1381.44 429.281 1382.33 428.672C1383.23 428.062 1384.25 427.602 1385.38 427.289C1386.2 427.07 1387.45 426.859 1389.12 426.656C1392.53 426.25 1395.04 425.766 1396.65 425.203C1396.66 424.625 1396.67 424.258 1396.67 424.102C1396.67 422.383 1396.27 421.172 1395.48 420.469C1394.4 419.516 1392.8 419.039 1390.67 419.039C1388.69 419.039 1387.22 419.391 1386.27 420.094C1385.33 420.781 1384.63 422.008 1384.18 423.773L1380.05 423.211C1380.43 421.445 1381.05 420.023 1381.91 418.945C1382.77 417.852 1384.01 417.016 1385.63 416.438C1387.26 415.844 1389.14 415.547 1391.28 415.547C1393.41 415.547 1395.13 415.797 1396.46 416.297C1397.79 416.797 1398.77 417.43 1399.39 418.195C1400.02 418.945 1400.45 419.898 1400.7 421.055C1400.84 421.773 1400.91 423.07 1400.91 424.945V430.57C1400.91 434.492 1401 436.977 1401.17 438.023C1401.36 439.055 1401.72 440.047 1402.25 441H1397.84C1397.41 440.125 1397.12 439.102 1397 437.93ZM1396.65 428.508C1395.12 429.133 1392.82 429.664 1389.76 430.102C1388.02 430.352 1386.8 430.633 1386.08 430.945C1385.36 431.258 1384.8 431.719 1384.41 432.328C1384.02 432.922 1383.83 433.586 1383.83 434.32C1383.83 435.445 1384.25 436.383 1385.09 437.133C1385.95 437.883 1387.2 438.258 1388.84 438.258C1390.47 438.258 1391.91 437.906 1393.18 437.203C1394.45 436.484 1395.38 435.508 1395.97 434.273C1396.42 433.32 1396.65 431.914 1396.65 430.055V428.508ZM1407.38 441V406.641H1411.6V441H1407.38ZM1115.21 487L1119.64 486.625C1119.97 488.781 1120.73 490.406 1121.91 491.5C1123.12 492.578 1124.56 493.117 1126.25 493.117C1128.28 493.117 1130 492.352 1131.41 490.82C1132.81 489.289 1133.52 487.258 1133.52 484.727C1133.52 482.32 1132.84 480.422 1131.48 479.031C1130.13 477.641 1128.37 476.945 1126.18 476.945C1124.82 476.945 1123.59 477.258 1122.5 477.883C1121.41 478.492 1120.55 479.289 1119.92 480.273L1115.96 479.758L1119.29 462.109H1136.38V466.141H1122.66L1120.81 475.375C1122.88 473.938 1125.04 473.219 1127.3 473.219C1130.3 473.219 1132.84 474.258 1134.9 476.336C1136.96 478.414 1137.99 481.086 1137.99 484.352C1137.99 487.461 1137.09 490.148 1135.27 492.414C1133.07 495.195 1130.06 496.586 1126.25 496.586C1123.12 496.586 1120.57 495.711 1118.59 493.961C1116.62 492.211 1115.49 489.891 1115.21 487ZM1155.45 496V487.773H1140.55V483.906L1156.23 461.641H1159.67V483.906H1164.31V487.773H1159.67V496H1155.45ZM1155.45 483.906V468.414L1144.7 483.906H1155.45ZM1170.92 496V491.195H1175.73V496C1175.73 497.766 1175.41 499.188 1174.79 500.266C1174.16 501.359 1173.17 502.203 1171.81 502.797L1170.64 500.992C1171.53 500.602 1172.19 500.023 1172.61 499.258C1173.03 498.508 1173.27 497.422 1173.31 496H1170.92ZM1182.29 466.141V462.086H1204.53V465.367C1202.34 467.695 1200.17 470.789 1198.02 474.648C1195.88 478.508 1194.22 482.477 1193.05 486.555C1192.2 489.43 1191.66 492.578 1191.43 496H1187.09C1187.14 493.297 1187.67 490.031 1188.69 486.203C1189.7 482.375 1191.16 478.688 1193.05 475.141C1194.95 471.578 1196.98 468.578 1199.12 466.141H1182.29ZM1208.75 486.93L1212.97 486.367C1213.45 488.758 1214.27 490.484 1215.43 491.547C1216.6 492.594 1218.02 493.117 1219.7 493.117C1221.68 493.117 1223.35 492.43 1224.71 491.055C1226.09 489.68 1226.77 487.977 1226.77 485.945C1226.77 484.008 1226.14 482.414 1224.88 481.164C1223.61 479.898 1222 479.266 1220.05 479.266C1219.25 479.266 1218.26 479.422 1217.07 479.734L1217.54 476.031C1217.82 476.062 1218.05 476.078 1218.22 476.078C1220.02 476.078 1221.63 475.609 1223.07 474.672C1224.51 473.734 1225.23 472.289 1225.23 470.336C1225.23 468.789 1224.7 467.508 1223.66 466.492C1222.61 465.477 1221.26 464.969 1219.6 464.969C1217.96 464.969 1216.59 465.484 1215.5 466.516C1214.41 467.547 1213.7 469.094 1213.39 471.156L1209.17 470.406C1209.69 467.578 1210.86 465.391 1212.69 463.844C1214.52 462.281 1216.79 461.5 1219.51 461.5C1221.38 461.5 1223.11 461.906 1224.69 462.719C1226.27 463.516 1227.47 464.609 1228.3 466C1229.14 467.391 1229.56 468.867 1229.56 470.43C1229.56 471.914 1229.16 473.266 1228.37 474.484C1227.57 475.703 1226.39 476.672 1224.83 477.391C1226.86 477.859 1228.44 478.836 1229.56 480.32C1230.69 481.789 1231.25 483.633 1231.25 485.852C1231.25 488.852 1230.16 491.398 1227.97 493.492C1225.78 495.57 1223.02 496.609 1219.67 496.609C1216.66 496.609 1214.15 495.711 1212.15 493.914C1210.16 492.117 1209.03 489.789 1208.75 486.93ZM1235.45 479.055C1235.45 474.992 1235.86 471.727 1236.69 469.258C1237.53 466.773 1238.77 464.859 1240.41 463.516C1242.07 462.172 1244.15 461.5 1246.65 461.5C1248.49 461.5 1250.11 461.875 1251.5 462.625C1252.89 463.359 1254.04 464.43 1254.95 465.836C1255.85 467.227 1256.56 468.93 1257.08 470.945C1257.59 472.945 1257.85 475.648 1257.85 479.055C1257.85 483.086 1257.44 486.344 1256.61 488.828C1255.78 491.297 1254.54 493.211 1252.88 494.57C1251.24 495.914 1249.16 496.586 1246.65 496.586C1243.34 496.586 1240.73 495.398 1238.84 493.023C1236.58 490.164 1235.45 485.508 1235.45 479.055ZM1239.78 479.055C1239.78 484.695 1240.44 488.453 1241.75 490.328C1243.08 492.188 1244.71 493.117 1246.65 493.117C1248.59 493.117 1250.21 492.18 1251.52 490.305C1252.85 488.43 1253.52 484.68 1253.52 479.055C1253.52 473.398 1252.85 469.641 1251.52 467.781C1250.21 465.922 1248.57 464.992 1246.6 464.992C1244.66 464.992 1243.12 465.812 1241.96 467.453C1240.51 469.547 1239.78 473.414 1239.78 479.055ZM1284.76 506.102C1282.43 503.164 1280.46 499.727 1278.85 495.789C1277.24 491.852 1276.44 487.773 1276.44 483.555C1276.44 479.836 1277.04 476.273 1278.24 472.867C1279.65 468.914 1281.82 464.977 1284.76 461.055H1287.78C1285.89 464.305 1284.64 466.625 1284.03 468.016C1283.08 470.172 1282.33 472.422 1281.78 474.766C1281.11 477.688 1280.77 480.625 1280.77 483.578C1280.77 491.094 1283.11 498.602 1287.78 506.102H1284.76ZM1305.03 496V487.773H1290.12V483.906L1305.8 461.641H1309.25V483.906H1313.89V487.773H1309.25V496H1305.03ZM1305.03 483.906V468.414L1294.27 483.906H1305.03ZM1320.59 496V491.195H1325.4V496H1320.59ZM1338.08 477.367C1336.33 476.727 1335.03 475.812 1334.19 474.625C1333.34 473.438 1332.92 472.016 1332.92 470.359C1332.92 467.859 1333.82 465.758 1335.62 464.055C1337.41 462.352 1339.8 461.5 1342.79 461.5C1345.79 461.5 1348.2 462.375 1350.03 464.125C1351.86 465.859 1352.77 467.977 1352.77 470.477C1352.77 472.07 1352.35 473.461 1351.51 474.648C1350.68 475.82 1349.41 476.727 1347.71 477.367C1349.82 478.055 1351.42 479.164 1352.52 480.695C1353.62 482.227 1354.18 484.055 1354.18 486.18C1354.18 489.117 1353.14 491.586 1351.06 493.586C1348.98 495.586 1346.25 496.586 1342.86 496.586C1339.47 496.586 1336.73 495.586 1334.66 493.586C1332.58 491.57 1331.54 489.062 1331.54 486.062C1331.54 483.828 1332.1 481.961 1333.23 480.461C1334.37 478.945 1335.98 477.914 1338.08 477.367ZM1337.23 470.219C1337.23 471.844 1337.76 473.172 1338.8 474.203C1339.85 475.234 1341.21 475.75 1342.88 475.75C1344.51 475.75 1345.84 475.242 1346.87 474.227C1347.91 473.195 1348.44 471.938 1348.44 470.453C1348.44 468.906 1347.9 467.609 1346.82 466.562C1345.76 465.5 1344.43 464.969 1342.84 464.969C1341.23 464.969 1339.89 465.484 1338.83 466.516C1337.77 467.547 1337.23 468.781 1337.23 470.219ZM1335.88 486.086C1335.88 487.289 1336.16 488.453 1336.72 489.578C1337.3 490.703 1338.15 491.578 1339.27 492.203C1340.4 492.812 1341.61 493.117 1342.91 493.117C1344.92 493.117 1346.59 492.469 1347.9 491.172C1349.21 489.875 1349.87 488.227 1349.87 486.227C1349.87 484.195 1349.19 482.516 1347.83 481.188C1346.48 479.859 1344.8 479.195 1342.77 479.195C1340.78 479.195 1339.13 479.852 1337.82 481.164C1336.52 482.477 1335.88 484.117 1335.88 486.086ZM1359.1 469.891C1359.1 467.438 1359.72 465.352 1360.95 463.633C1362.19 461.914 1363.98 461.055 1366.32 461.055C1368.48 461.055 1370.26 461.828 1371.66 463.375C1373.09 464.906 1373.8 467.164 1373.8 470.148C1373.8 473.055 1373.08 475.297 1371.64 476.875C1370.22 478.438 1368.46 479.219 1366.37 479.219C1364.29 479.219 1362.55 478.445 1361.16 476.898C1359.79 475.352 1359.1 473.016 1359.1 469.891ZM1366.44 463.961C1365.39 463.961 1364.52 464.414 1363.81 465.32C1363.12 466.227 1362.78 467.891 1362.78 470.312C1362.78 472.516 1363.13 474.07 1363.84 474.977C1364.54 475.867 1365.41 476.312 1366.44 476.312C1367.5 476.312 1368.38 475.859 1369.06 474.953C1369.77 474.047 1370.12 472.391 1370.12 469.984C1370.12 467.766 1369.77 466.211 1369.06 465.32C1368.36 464.414 1367.48 463.961 1366.44 463.961ZM1366.46 497.266L1385.26 461.055H1388.68L1369.95 497.266H1366.46ZM1381.32 487.938C1381.32 485.469 1381.94 483.383 1383.17 481.68C1384.41 479.961 1386.2 479.102 1388.56 479.102C1390.72 479.102 1392.5 479.875 1393.91 481.422C1395.33 482.953 1396.04 485.211 1396.04 488.195C1396.04 491.102 1395.32 493.344 1393.88 494.922C1392.46 496.484 1390.7 497.266 1388.59 497.266C1386.51 497.266 1384.77 496.492 1383.38 494.945C1382.01 493.383 1381.32 491.047 1381.32 487.938ZM1388.68 482.008C1387.62 482.008 1386.73 482.461 1386.03 483.367C1385.34 484.273 1385 485.938 1385 488.359C1385 490.547 1385.35 492.094 1386.05 493C1386.76 493.906 1387.62 494.359 1388.66 494.359C1389.73 494.359 1390.62 493.906 1391.3 493C1392.01 492.094 1392.36 490.438 1392.36 488.031C1392.36 485.812 1392.01 484.258 1391.3 483.367C1390.6 482.461 1389.73 482.008 1388.68 482.008ZM1404.95 506.102H1401.92C1406.59 498.602 1408.93 491.094 1408.93 483.578C1408.93 480.641 1408.59 477.727 1407.92 474.836C1407.39 472.492 1406.65 470.242 1405.7 468.086C1405.09 466.68 1403.83 464.336 1401.92 461.055H1404.95C1407.88 464.977 1410.05 468.914 1411.46 472.867C1412.66 476.273 1413.27 479.836 1413.27 483.555C1413.27 487.773 1412.45 491.852 1410.83 495.789C1409.22 499.727 1407.26 503.164 1404.95 506.102Z" fill="#F8F8F2"/>
<path d="M1793 462.5L1842 527L2196.33 527" stroke="#F8F8F2" stroke-width="2" stroke-linecap="square"/>
<path d="M366.312 621.469C363.208 617.552 360.583 612.969 358.438 607.719C356.292 602.469 355.219 597.031 355.219 591.406C355.219 586.448 356.021 581.698 357.625 577.156C359.5 571.885 362.396 566.635 366.312 561.406H370.344C367.823 565.74 366.156 568.833 365.344 570.688C364.073 573.562 363.073 576.562 362.344 579.688C361.448 583.583 361 587.5 361 591.438C361 601.458 364.115 611.469 370.344 621.469H366.312ZM398.531 603.906C396.448 605.677 394.438 606.927 392.5 607.656C390.583 608.385 388.521 608.75 386.312 608.75C382.667 608.75 379.865 607.865 377.906 606.094C375.948 604.302 374.969 602.021 374.969 599.25C374.969 597.625 375.333 596.146 376.062 594.812C376.812 593.458 377.781 592.375 378.969 591.562C380.177 590.75 381.531 590.135 383.031 589.719C384.135 589.427 385.802 589.146 388.031 588.875C392.573 588.333 395.917 587.688 398.062 586.938C398.083 586.167 398.094 585.677 398.094 585.469C398.094 583.177 397.562 581.562 396.5 580.625C395.062 579.354 392.927 578.719 390.094 578.719C387.448 578.719 385.49 579.188 384.219 580.125C382.969 581.042 382.042 582.677 381.438 585.031L375.938 584.281C376.438 581.927 377.26 580.031 378.406 578.594C379.552 577.135 381.208 576.021 383.375 575.25C385.542 574.458 388.052 574.062 390.906 574.062C393.74 574.062 396.042 574.396 397.812 575.062C399.583 575.729 400.885 576.573 401.719 577.594C402.552 578.594 403.135 579.865 403.469 581.406C403.656 582.365 403.75 584.094 403.75 586.594V594.094C403.75 599.323 403.865 602.635 404.094 604.031C404.344 605.406 404.823 606.729 405.531 608H399.656C399.073 606.833 398.698 605.469 398.531 603.906ZM398.062 591.344C396.021 592.177 392.958 592.885 388.875 593.469C386.562 593.802 384.927 594.177 383.969 594.594C383.01 595.01 382.271 595.625 381.75 596.438C381.229 597.229 380.969 598.115 380.969 599.094C380.969 600.594 381.531 601.844 382.656 602.844C383.802 603.844 385.469 604.344 387.656 604.344C389.823 604.344 391.75 603.875 393.438 602.938C395.125 601.979 396.365 600.677 397.156 599.031C397.76 597.76 398.062 595.885 398.062 593.406V591.344ZM416.188 621.469H412.156C418.385 611.469 421.5 601.458 421.5 591.438C421.5 587.521 421.052 583.635 420.156 579.781C419.448 576.656 418.458 573.656 417.188 570.781C416.375 568.906 414.698 565.781 412.156 561.406H416.188C420.104 566.635 423 571.885 424.875 577.156C426.479 581.698 427.281 586.448 427.281 591.406C427.281 597.031 426.198 602.469 424.031 607.719C421.885 612.969 419.271 617.552 416.188 621.469ZM450.625 608.781L453.344 595.469H448.062V590.812H454.281L456.594 579.469H448.062V574.812H457.531L460.25 561.406H464.938L462.219 574.812H472.062L474.781 561.406H479.5L476.781 574.812H482.188V579.469H475.844L473.5 590.812H482.188V595.469H472.562L469.844 608.781H465.156L467.844 595.469H458.031L455.312 608.781H450.625ZM458.969 590.812H468.781L471.125 579.469H461.281L458.969 590.812ZM485.906 593.281L491.625 592.781C491.896 595.073 492.521 596.958 493.5 598.438C494.5 599.896 496.042 601.083 498.125 602C500.208 602.896 502.552 603.344 505.156 603.344C507.469 603.344 509.51 603 511.281 602.312C513.052 601.625 514.365 600.688 515.219 599.5C516.094 598.292 516.531 596.979 516.531 595.562C516.531 594.125 516.115 592.875 515.281 591.812C514.448 590.729 513.073 589.823 511.156 589.094C509.927 588.615 507.208 587.875 503 586.875C498.792 585.854 495.844 584.896 494.156 584C491.969 582.854 490.333 581.438 489.25 579.75C488.188 578.042 487.656 576.135 487.656 574.031C487.656 571.719 488.312 569.562 489.625 567.562C490.938 565.542 492.854 564.01 495.375 562.969C497.896 561.927 500.698 561.406 503.781 561.406C507.177 561.406 510.167 561.958 512.75 563.062C515.354 564.146 517.354 565.75 518.75 567.875C520.146 570 520.896 572.406 521 575.094L515.188 575.531C514.875 572.635 513.812 570.448 512 568.969C510.208 567.49 507.552 566.75 504.031 566.75C500.365 566.75 497.688 567.427 496 568.781C494.333 570.115 493.5 571.729 493.5 573.625C493.5 575.271 494.094 576.625 495.281 577.688C496.448 578.75 499.49 579.844 504.406 580.969C509.344 582.073 512.729 583.042 514.562 583.875C517.229 585.104 519.198 586.667 520.469 588.562C521.74 590.438 522.375 592.604 522.375 595.062C522.375 597.5 521.677 599.802 520.281 601.969C518.885 604.115 516.875 605.792 514.25 607C511.646 608.188 508.708 608.781 505.438 608.781C501.292 608.781 497.812 608.177 495 606.969C492.208 605.76 490.01 603.948 488.406 601.531C486.823 599.094 485.99 596.344 485.906 593.281ZM551.688 608V603.125C549.104 606.875 545.594 608.75 541.156 608.75C539.198 608.75 537.365 608.375 535.656 607.625C533.969 606.875 532.708 605.938 531.875 604.812C531.062 603.667 530.49 602.271 530.156 600.625C529.927 599.521 529.812 597.771 529.812 595.375V574.812H535.438V593.219C535.438 596.156 535.552 598.135 535.781 599.156C536.135 600.635 536.885 601.802 538.031 602.656C539.177 603.49 540.594 603.906 542.281 603.906C543.969 603.906 545.552 603.479 547.031 602.625C548.51 601.75 549.552 600.573 550.156 599.094C550.781 597.594 551.094 595.427 551.094 592.594V574.812H556.719V608H551.688ZM570.75 608H565.531V562.188H571.156V578.531C573.531 575.552 576.562 574.062 580.25 574.062C582.292 574.062 584.219 574.479 586.031 575.312C587.865 576.125 589.365 577.281 590.531 578.781C591.719 580.26 592.646 582.052 593.312 584.156C593.979 586.26 594.312 588.51 594.312 590.906C594.312 596.594 592.906 600.99 590.094 604.094C587.281 607.198 583.906 608.75 579.969 608.75C576.052 608.75 572.979 607.115 570.75 603.844V608ZM570.688 591.156C570.688 595.135 571.229 598.01 572.312 599.781C574.083 602.677 576.479 604.125 579.5 604.125C581.958 604.125 584.083 603.062 585.875 600.938C587.667 598.792 588.562 595.604 588.562 591.375C588.562 587.042 587.698 583.844 585.969 581.781C584.26 579.719 582.188 578.688 579.75 578.688C577.292 578.688 575.167 579.76 573.375 581.906C571.583 584.031 570.688 587.115 570.688 591.156ZM601.156 568.719V562.188H606.781V568.719H601.156ZM594.031 620.875L595.094 616.094C596.219 616.385 597.104 616.531 597.75 616.531C598.896 616.531 599.75 616.146 600.312 615.375C600.875 614.625 601.156 612.729 601.156 609.688V574.812H606.781V609.812C606.781 613.896 606.25 616.74 605.188 618.344C603.833 620.427 601.583 621.469 598.438 621.469C596.917 621.469 595.448 621.271 594.031 620.875ZM638.156 597.312L643.969 598.031C643.052 601.427 641.354 604.062 638.875 605.938C636.396 607.812 633.229 608.75 629.375 608.75C624.521 608.75 620.667 607.26 617.812 604.281C614.979 601.281 613.562 597.083 613.562 591.688C613.562 586.104 615 581.771 617.875 578.688C620.75 575.604 624.479 574.062 629.062 574.062C633.5 574.062 637.125 575.573 639.938 578.594C642.75 581.615 644.156 585.865 644.156 591.344C644.156 591.677 644.146 592.177 644.125 592.844H619.375C619.583 596.49 620.615 599.281 622.469 601.219C624.323 603.156 626.635 604.125 629.406 604.125C631.469 604.125 633.229 603.583 634.688 602.5C636.146 601.417 637.302 599.688 638.156 597.312ZM619.688 588.219H638.219C637.969 585.427 637.26 583.333 636.094 581.938C634.302 579.771 631.979 578.688 629.125 578.688C626.542 578.688 624.365 579.552 622.594 581.281C620.844 583.01 619.875 585.323 619.688 588.219ZM672.719 595.844L678.25 596.562C677.646 600.375 676.094 603.365 673.594 605.531C671.115 607.677 668.062 608.75 664.438 608.75C659.896 608.75 656.24 607.271 653.469 604.312C650.719 601.333 649.344 597.073 649.344 591.531C649.344 587.948 649.938 584.812 651.125 582.125C652.312 579.438 654.115 577.427 656.531 576.094C658.969 574.74 661.615 574.062 664.469 574.062C668.073 574.062 671.021 574.979 673.312 576.812C675.604 578.625 677.073 581.208 677.719 584.562L672.25 585.406C671.729 583.177 670.802 581.5 669.469 580.375C668.156 579.25 666.562 578.688 664.688 578.688C661.854 578.688 659.552 579.708 657.781 581.75C656.01 583.771 655.125 586.979 655.125 591.375C655.125 595.833 655.979 599.073 657.688 601.094C659.396 603.115 661.625 604.125 664.375 604.125C666.583 604.125 668.427 603.448 669.906 602.094C671.385 600.74 672.323 598.656 672.719 595.844ZM695.344 602.969L696.156 607.938C694.573 608.271 693.156 608.438 691.906 608.438C689.865 608.438 688.281 608.115 687.156 607.469C686.031 606.823 685.24 605.979 684.781 604.938C684.323 603.875 684.094 601.656 684.094 598.281V579.188H679.969V574.812H684.094V566.594L689.688 563.219V574.812H695.344V579.188H689.688V598.594C689.688 600.198 689.781 601.229 689.969 601.688C690.177 602.146 690.5 602.51 690.938 602.781C691.396 603.052 692.042 603.188 692.875 603.188C693.5 603.188 694.323 603.115 695.344 602.969ZM698.625 598.094L704.188 597.219C704.5 599.448 705.365 601.156 706.781 602.344C708.219 603.531 710.219 604.125 712.781 604.125C715.365 604.125 717.281 603.604 718.531 602.562C719.781 601.5 720.406 600.26 720.406 598.844C720.406 597.573 719.854 596.573 718.75 595.844C717.979 595.344 716.062 594.708 713 593.938C708.875 592.896 706.01 592 704.406 591.25C702.823 590.479 701.615 589.427 700.781 588.094C699.969 586.74 699.562 585.25 699.562 583.625C699.562 582.146 699.896 580.781 700.562 579.531C701.25 578.26 702.177 577.208 703.344 576.375C704.219 575.729 705.406 575.188 706.906 574.75C708.427 574.292 710.052 574.062 711.781 574.062C714.385 574.062 716.667 574.438 718.625 575.188C720.604 575.938 722.062 576.958 723 578.25C723.938 579.521 724.583 581.229 724.938 583.375L719.438 584.125C719.188 582.417 718.458 581.083 717.25 580.125C716.062 579.167 714.375 578.688 712.188 578.688C709.604 578.688 707.76 579.115 706.656 579.969C705.552 580.823 705 581.823 705 582.969C705 583.698 705.229 584.354 705.688 584.938C706.146 585.542 706.865 586.042 707.844 586.438C708.406 586.646 710.062 587.125 712.812 587.875C716.792 588.938 719.562 589.812 721.125 590.5C722.708 591.167 723.948 592.146 724.844 593.438C725.74 594.729 726.188 596.333 726.188 598.25C726.188 600.125 725.635 601.896 724.531 603.562C723.448 605.208 721.875 606.49 719.812 607.406C717.75 608.302 715.417 608.75 712.812 608.75C708.5 608.75 705.208 607.854 702.938 606.062C700.688 604.271 699.25 601.615 698.625 598.094Z" fill="#F8F8F2"/>
<path d="M1484.31 621.469C1481.21 617.552 1478.58 612.969 1476.44 607.719C1474.29 602.469 1473.22 597.031 1473.22 591.406C1473.22 586.448 1474.02 581.698 1475.62 577.156C1477.5 571.885 1480.4 566.635 1484.31 561.406H1488.34C1485.82 565.74 1484.16 568.833 1483.34 570.688C1482.07 573.562 1481.07 576.562 1480.34 579.688C1479.45 583.583 1479 587.5 1479 591.438C1479 601.458 1482.11 611.469 1488.34 621.469H1484.31ZM1500.06 608H1494.84V562.188H1500.47V578.531C1502.84 575.552 1505.88 574.062 1509.56 574.062C1511.6 574.062 1513.53 574.479 1515.34 575.312C1517.18 576.125 1518.68 577.281 1519.84 578.781C1521.03 580.26 1521.96 582.052 1522.62 584.156C1523.29 586.26 1523.62 588.51 1523.62 590.906C1523.62 596.594 1522.22 600.99 1519.41 604.094C1516.59 607.198 1513.22 608.75 1509.28 608.75C1505.36 608.75 1502.29 607.115 1500.06 603.844V608ZM1500 591.156C1500 595.135 1500.54 598.01 1501.62 599.781C1503.4 602.677 1505.79 604.125 1508.81 604.125C1511.27 604.125 1513.4 603.062 1515.19 600.938C1516.98 598.792 1517.88 595.604 1517.88 591.375C1517.88 587.042 1517.01 583.844 1515.28 581.781C1513.57 579.719 1511.5 578.688 1509.06 578.688C1506.6 578.688 1504.48 579.76 1502.69 581.906C1500.9 584.031 1500 587.115 1500 591.156ZM1534.19 621.469H1530.16C1536.39 611.469 1539.5 601.458 1539.5 591.438C1539.5 587.521 1539.05 583.635 1538.16 579.781C1537.45 576.656 1536.46 573.656 1535.19 570.781C1534.38 568.906 1532.7 565.781 1530.16 561.406H1534.19C1538.1 566.635 1541 571.885 1542.88 577.156C1544.48 581.698 1545.28 586.448 1545.28 591.406C1545.28 597.031 1544.2 602.469 1542.03 607.719C1539.89 612.969 1537.27 617.552 1534.19 621.469ZM1568.62 608.781L1571.34 595.469H1566.06V590.812H1572.28L1574.59 579.469H1566.06V574.812H1575.53L1578.25 561.406H1582.94L1580.22 574.812H1590.06L1592.78 561.406H1597.5L1594.78 574.812H1600.19V579.469H1593.84L1591.5 590.812H1600.19V595.469H1590.56L1587.84 608.781H1583.16L1585.84 595.469H1576.03L1573.31 608.781H1568.62ZM1576.97 590.812H1586.78L1589.12 579.469H1579.28L1576.97 590.812ZM1619.06 608L1601.31 562.188H1607.88L1619.78 595.469C1620.74 598.135 1621.54 600.635 1622.19 602.969C1622.9 600.469 1623.72 597.969 1624.66 595.469L1637.03 562.188H1643.22L1625.28 608H1619.06ZM1646.78 568.656V562.188H1652.41V568.656H1646.78ZM1646.78 608V574.812H1652.41V608H1646.78ZM1682.53 608V603.812C1680.43 607.104 1677.33 608.75 1673.25 608.75C1670.6 608.75 1668.17 608.021 1665.94 606.562C1663.73 605.104 1662.01 603.073 1660.78 600.469C1659.57 597.844 1658.97 594.833 1658.97 591.438C1658.97 588.125 1659.52 585.125 1660.62 582.438C1661.73 579.729 1663.39 577.656 1665.59 576.219C1667.8 574.781 1670.27 574.062 1673 574.062C1675 574.062 1676.78 574.49 1678.34 575.344C1679.91 576.177 1681.18 577.271 1682.16 578.625V562.188H1687.75V608H1682.53ZM1664.75 591.438C1664.75 595.688 1665.65 598.865 1667.44 600.969C1669.23 603.073 1671.34 604.125 1673.78 604.125C1676.24 604.125 1678.32 603.125 1680.03 601.125C1681.76 599.104 1682.62 596.031 1682.62 591.906C1682.62 587.365 1681.75 584.031 1680 581.906C1678.25 579.781 1676.09 578.719 1673.53 578.719C1671.03 578.719 1668.94 579.74 1667.25 581.781C1665.58 583.823 1664.75 587.042 1664.75 591.438ZM1719.34 597.312L1725.16 598.031C1724.24 601.427 1722.54 604.062 1720.06 605.938C1717.58 607.812 1714.42 608.75 1710.56 608.75C1705.71 608.75 1701.85 607.26 1699 604.281C1696.17 601.281 1694.75 597.083 1694.75 591.688C1694.75 586.104 1696.19 581.771 1699.06 578.688C1701.94 575.604 1705.67 574.062 1710.25 574.062C1714.69 574.062 1718.31 575.573 1721.12 578.594C1723.94 581.615 1725.34 585.865 1725.34 591.344C1725.34 591.677 1725.33 592.177 1725.31 592.844H1700.56C1700.77 596.49 1701.8 599.281 1703.66 601.219C1705.51 603.156 1707.82 604.125 1710.59 604.125C1712.66 604.125 1714.42 603.583 1715.88 602.5C1717.33 601.417 1718.49 599.688 1719.34 597.312ZM1700.88 588.219H1719.41C1719.16 585.427 1718.45 583.333 1717.28 581.938C1715.49 579.771 1713.17 578.688 1710.31 578.688C1707.73 578.688 1705.55 579.552 1703.78 581.281C1702.03 583.01 1701.06 585.323 1700.88 588.219ZM1730.16 591.406C1730.16 585.26 1731.86 580.708 1735.28 577.75C1738.14 575.292 1741.61 574.062 1745.72 574.062C1750.28 574.062 1754.01 575.562 1756.91 578.562C1759.8 581.542 1761.25 585.667 1761.25 590.938C1761.25 595.208 1760.6 598.573 1759.31 601.031C1758.04 603.469 1756.18 605.365 1753.72 606.719C1751.28 608.073 1748.61 608.75 1745.72 608.75C1741.07 608.75 1737.31 607.26 1734.44 604.281C1731.58 601.302 1730.16 597.01 1730.16 591.406ZM1735.94 591.406C1735.94 595.656 1736.86 598.844 1738.72 600.969C1740.57 603.073 1742.91 604.125 1745.72 604.125C1748.51 604.125 1750.83 603.062 1752.69 600.938C1754.54 598.812 1755.47 595.573 1755.47 591.219C1755.47 587.115 1754.53 584.01 1752.66 581.906C1750.8 579.781 1748.49 578.719 1745.72 578.719C1742.91 578.719 1740.57 579.771 1738.72 581.875C1736.86 583.979 1735.94 587.156 1735.94 591.406ZM1765.62 598.094L1771.19 597.219C1771.5 599.448 1772.36 601.156 1773.78 602.344C1775.22 603.531 1777.22 604.125 1779.78 604.125C1782.36 604.125 1784.28 603.604 1785.53 602.562C1786.78 601.5 1787.41 600.26 1787.41 598.844C1787.41 597.573 1786.85 596.573 1785.75 595.844C1784.98 595.344 1783.06 594.708 1780 593.938C1775.88 592.896 1773.01 592 1771.41 591.25C1769.82 590.479 1768.61 589.427 1767.78 588.094C1766.97 586.74 1766.56 585.25 1766.56 583.625C1766.56 582.146 1766.9 580.781 1767.56 579.531C1768.25 578.26 1769.18 577.208 1770.34 576.375C1771.22 575.729 1772.41 575.188 1773.91 574.75C1775.43 574.292 1777.05 574.062 1778.78 574.062C1781.39 574.062 1783.67 574.438 1785.62 575.188C1787.6 575.938 1789.06 576.958 1790 578.25C1790.94 579.521 1791.58 581.229 1791.94 583.375L1786.44 584.125C1786.19 582.417 1785.46 581.083 1784.25 580.125C1783.06 579.167 1781.38 578.688 1779.19 578.688C1776.6 578.688 1774.76 579.115 1773.66 579.969C1772.55 580.823 1772 581.823 1772 582.969C1772 583.698 1772.23 584.354 1772.69 584.938C1773.15 585.542 1773.86 586.042 1774.84 586.438C1775.41 586.646 1777.06 587.125 1779.81 587.875C1783.79 588.938 1786.56 589.812 1788.12 590.5C1789.71 591.167 1790.95 592.146 1791.84 593.438C1792.74 594.729 1793.19 596.333 1793.19 598.25C1793.19 600.125 1792.64 601.896 1791.53 603.562C1790.45 605.208 1788.88 606.49 1786.81 607.406C1784.75 608.302 1782.42 608.75 1779.81 608.75C1775.5 608.75 1772.21 607.854 1769.94 606.062C1767.69 604.271 1766.25 601.615 1765.62 598.094Z" fill="#F8F8F2"/>
<defs>
<radialGradient id="paint0_angular_2_83" cx="0" cy="0" r="1" gradientUnits="userSpaceOnUse" gradientTransform="translate(540 277) scale(250 250)">
<stop offset="0.2038" stop-color="#F78C6C"/>
<stop offset="0.438865" stop-color="#467CDA"/>
<stop offset="0.99831" stop-color="#467CDA"/>
</radialGradient>
</defs>
</svg>
